<?xml version="1.0" standalone="no"?>
<!DOCTYPE svg PUBLIC "-//W3C//DTD SVG 1.1//EN" "http://www.w3.org/Graphics/SVG/1.1/DTD/svg11.dtd" >
<svg>
<metadata>
Created by FontForge 20110222 at Mon Mar  7 03:50:08 2011
 By www-data
Copyright (c) Typographer Mediengestaltung, 2000. All rights reserved.
</metadata>
<defs>
<font id="BrockScript" horiz-adv-x="950" >
  <font-face 
    font-family="Brock Script"
    font-weight="400"
    font-stretch="normal"
    units-per-em="2048"
    panose-1="3 0 5 3 0 0 0 0 0 0"
    ascent="1638"
    descent="-410"
    x-height="694"
    cap-height="1823"
    bbox="-176 -983 3478 2185"
    underline-thickness="61"
    underline-position="-404"
    unicode-range="U+0020-2122"
  />
    <missing-glyph />
    <glyph glyph-name="space" unicode=" " horiz-adv-x="679" 
 />
    <glyph glyph-name="exclam" unicode="!" horiz-adv-x="681" 
d="M774 1278q0 4 -1.5 -1.5t-4.5 -21.5l-438 -1030l-17 2l-6 13l281 1009q9 34 41 37l123 10q22 3 22 -18zM371 33q0 -39 -68 -39q-94 0 -94 33q0 110 31 110q4 0 100 -22q31 0 31 -82z" />
    <glyph glyph-name="quotedbl" unicode="&#x22;" horiz-adv-x="669" 
d="M580 1366q0 -5 -2.5 -21.5t-2.5 -21.5l-63 -455h-29l-61 455q-4 20 -4 43q0 96 82 96q80 0 80 -96zM254 1366q0 -22 -6 -43l-60 -455h-30l-62 455l-6 43q0 96 82 96t82 -96z" />
    <glyph glyph-name="numbersign" unicode="#" horiz-adv-x="1574" 
d="M1460 971l-37 -97h-315l-104 -299h339l-34 -96h-340l-170 -479h-113l170 479h-291l-174 -479h-112l170 479h-334l41 96h327l105 299h-357l33 97h359l170 483h114l-172 -483h297l170 483h111l-168 -483h315zM995 874h-295l-106 -299h299z" />
    <glyph glyph-name="dollar" unicode="$" 
d="M883 1102l-21 -29h-12q-99 63 -170 80l-133 -442q112 -114 151 -172q76 -105 76 -209q0 -163 -149 -254q-125 -76 -297 -76l-33 -113l-64 -12l35 125q-202 34 -284 109l2 16l22 37h19q102 -89 258 -119l172 569q-201 195 -201 320q0 129 123 207q98 63 241 63h17l35 109
l65 12l-41 -127q139 -38 187 -80zM625 1161h-31q-95 0 -156 -54t-61 -144q0 -75 123 -207zM647 307q0 123 -147 264l-160 -534h2q132 0 213 69q92 78 92 201z" />
    <glyph glyph-name="percent" unicode="%" horiz-adv-x="1310" 
d="M1243 459q0 -139 -63 -269q-106 -213 -265 -213q-93 0 -157 76q-60 72 -60 168q0 195 113 350q91 129 227 129q101 0 156 -73q49 -64 49 -168zM1114 1413l-907 -1556h-76l-6 8q355 504 719 1173q-123 -123 -215 -123q-15 0 -54 11q-89 -238 -266 -238q-100 0 -164 76
q-61 70 -61 170q0 192 113 350q89 129 227 129q96 0 156.5 -71.5t60.5 -174.5q0 -83 -41 -186q21 -12 41 -12q82 0 188 118q88 94 140 187l82 143l12 6h47zM575 1237q-2 56 -34.5 92.5t-85.5 36.5q-89 0 -160 -111q-107 -166 -107 -366q0 -160 125 -160q141 0 211 242
q-18 30 -18 73q0 76 69 193zM1190 489q0 64 -29 111q-33 49 -98 49q-92 0 -160 -108q-37 -60 -72 -176q-32 -108 -32 -183q0 -168 127 -168q113 0 184 164q80 183 80 311z" />
    <glyph glyph-name="ampersand" unicode="&#x26;" horiz-adv-x="1554" 
d="M1702 750q-36 -124 -148 -162q-70 -27 -229 -27q-17 0 -71 2t-70 2q-14 -94 -45 -176q191 -244 239 -387l-6 -6q-121 3 -371 194q-217 -208 -460 -208q-134 0 -228 75q-94 78 -94 207q0 156 125 256q112 91 272 105q-69 120 -69 243q0 168 121 271q113 98 284 98
q74 0 146 -23l-27 -69q-93 41 -151 41q-118 0 -181 -77t-63 -206q0 -140 67 -280q193 -46 365 -205q31 95 31 182q0 40 -4 70l360 12q140 3 193 74l12 2zM1262 74q0 116 -146 268q-25 -41 -78 -109q139 -122 224 -159zM1085 379q-137 134 -305 168q74 -163 224 -287
q58 59 81 119zM969 219q-201 164 -326 346q-115 -9 -194 -94q-78 -83 -78 -199q0 -105 64.5 -167t170.5 -62q202 0 363 176z" />
    <glyph glyph-name="quoteright" unicode="&#x2019;" horiz-adv-x="473" 
d="M500 1343q0 -149 -279 -286l12 47q168 94 168 174q0 39 -43 39q-13 0 -51 -14l-10 8l25 88q15 49 81 49q97 0 97 -105z" />
    <glyph glyph-name="parenleft" unicode="(" horiz-adv-x="851" 
d="M1059 1772l-2 -13q-584 -1004 -584 -1896q0 -315 68 -498v-12l-29 -12l-8 6q-158 357 -158 825q0 418 205 856q156 342 471 754h12z" />
    <glyph glyph-name="parenright" unicode=")" horiz-adv-x="851" 
d="M707 946q0 -413 -207 -856q-165 -344 -475 -749h-11l-24 12l6 8q584 1027 584 1901q0 290 -70 497v17l25 6l14 -6q158 -371 158 -830z" />
    <glyph glyph-name="asterisk" unicode="*" horiz-adv-x="1026" 
d="M1022 1192q-320 -35 -424 -94q305 -108 305 -170q0 -46 -16 -94h-10q-49 121 -289 229q129 -205 129 -281q0 -8 -12 -37l-35 -75h-8q-23 249 -109 389q-68 -159 -68 -377l-8 -12h-43l-6 6v12q0 174 82 356q-128 -46 -285 -176h-16l-43 25l-2 10q141 111 352 189
q-169 75 -360 75l-13 11v43l7 6q138 0 350 -88q-77 108 -228 227v14l17 50l8 2q121 -95 250 -287q39 182 61 235q29 68 78 68q60 0 84 -6v-10q-163 -159 -190 -312q212 129 323 129q28 0 41 -8l76 -39z" />
    <glyph glyph-name="plus" unicode="+" horiz-adv-x="1705" 
d="M1454 561h-551v-561h-98v561h-551v96h551v564h98v-564h551v-96z" />
    <glyph glyph-name="comma" unicode="," horiz-adv-x="473" 
d="M336 80q0 -147 -279 -287l17 47q164 97 164 168q0 43 -43 43q-14 0 -52 -14l-10 8l25 92q9 41 82 41q96 0 96 -98z" />
    <glyph glyph-name="hyphen" unicode="-" horiz-adv-x="882" 
d="M780 453l-28 -93l-13 -6h-467l-6 17l29 84l14 10h459z" />
    <glyph glyph-name="period" unicode="." horiz-adv-x="473" 
d="M266 33q0 -39 -65 -39q-95 0 -95 33q0 110 31 110q7 0 101 -22q28 0 28 -82z" />
    <glyph glyph-name="slash" unicode="/" horiz-adv-x="686" 
d="M915 1632l-770 -1921h-106l-6 15l811 1919h65z" />
    <glyph glyph-name="zero" unicode="0" 
d="M881 786q0 -371 -207 -641q-130 -163 -291 -163q-151 0 -240 137q-73 116 -73 278q0 146 45 285q81 257 239 410q125 118 250 118q153 0 223 -143q54 -111 54 -281zM786 870q0 112 -30 189q-44 108 -140 108q-205 0 -344 -491q-53 -198 -53 -375q0 -109 37 -184
q46 -99 145 -99q148 0 261 261q124 284 124 591z" />
    <glyph glyph-name="one" unicode="1" 
d="M752 1178q0 -15 -7 -23l-327 -1116q-5 -15 -8 -22t-9.5 -11t-17.5 -4l-88 -2q-23 -3 -23 12l7 19l309 989q-125 -143 -275 -258h-12l-12 18l2 13q172 150 250 241q5 5 71 103q31 44 62 47l65 6q13 0 13 -12z" />
    <glyph glyph-name="two" unicode="2" 
d="M827 965q0 -118 -149 -303q-98 -120 -418 -449l158 -72q114 -51 162 -51q92 0 194 150l6 4l19 -11l2 -8q-143 -248 -271 -248q-38 0 -143 37q-173 66 -221 82l-115 -108h-8l-23 12v12l138 207q12 12 26 12q22 0 31 -6q455 502 455 770q0 144 -127 144q-109 0 -187 -111
q-63 -90 -80 -211l-6 -10h-26l-6 12q15 156 100 262q98 123 244 123q105 0 175 -67.5t70 -171.5z" />
    <glyph glyph-name="three" unicode="3" 
d="M801 1026q0 -197 -377 -344q141 0 229 -55q111 -67 111 -199q0 -168 -184 -332q-132 -114 -316 -114q-144 0 -209 45v10l8 14l11 4q84 -35 157 -35q213 0 334 238q51 99 51 201q0 80 -52 129t-134 49q-60 0 -141 -31l-17 10l-6 19l6 8q385 173 385 385q0 49 -28.5 81
t-75.5 32q-129 0 -246 -185h-12l-19 13l-4 12q142 227 328 227q88 0 144.5 -49t56.5 -133z" />
    <glyph glyph-name="four" unicode="4" 
d="M813 723q0 -10 -2 -16l-68 -265h52l12 -6l-2 -24l-12 -11h-62l-90 -362q-6 -28 -25 -31l-110 -20h-6q-11 0 -11 12q0 3 2 12t3 13l104 370l-508 -12l-6 14l4 15q280 380 424 651l31 61q24 37 49 43l137 29q16 0 16 -22q0 -30 -143 -216q-167 -219 -446 -530l456 8l70 264
q9 29 35 29l82 10q14 0 14 -16z" />
    <glyph glyph-name="five" unicode="5" 
d="M868 1204q-15 -112 -104 -145q-63 -25 -252 -25q-67 0 -129 4l-129 -401q119 94 258 94q120 0 194 -69t74 -185q0 -197 -194 -362q-164 -138 -373 -138q-88 0 -137 23l-2 12l6 15l10 4q60 -19 123 -19q133 0 252 101q172 144 172 364q0 89 -47 144t-131 55
q-69 0 -160 -60l-90 -57q-19 0 -19 16q0 4 7 25l170 528q9 33 55 33l336 6q51 0 100 41z" />
    <glyph glyph-name="six" unicode="6" 
d="M819 459q0 -169 -117 -320q-127 -157 -290 -157q-141 0 -219 89t-78 238q0 241 186 512q146 215 375 406l12 2l23 -21l-6 -18q-189 -182 -318 -424q-139 -269 -139 -508q0 -90 37 -154q45 -79 127 -79q131 0 209 172q61 134 61 282q0 162 -100 162q-93 0 -158 -127
q-46 -89 -64 -207l-6 -10l-18 -2l-8 12q6 149 73 260q84 138 217 138q90 0 150 -78q51 -68 51 -168z" />
    <glyph glyph-name="seven" unicode="7" 
d="M991 1159q-42 -67 -223 -325q-148 -210 -221 -322q-156 -245 -275 -469l-6 -12q-8 -15 -10 -17q-9 -9 -25 -12l-125 -8q-22 -3 -22 8q0 34 190 291q230 309 588 741l-321 10q-65 4 -113 -14q-44 -20 -74 -84q-7 -13 -14 -41q-6 -12 -31 -12q-12 0 -12 16q0 52 68 176
q32 63 100 82q45 13 172 13q203 0 307 -15l25 21l12 4l10 -16v-15z" />
    <glyph glyph-name="eight" unicode="8" 
d="M838 975q0 -142 -213 -381q110 -173 110 -303q0 -135 -100 -223q-101 -86 -238 -86q-123 0 -209 67q-92 74 -92 195q0 111 109 252q64 80 198 202q-84 125 -84 246q0 116 78.5 190t196.5 74q111 0 177.5 -62.5t66.5 -170.5zM758 985q0 176 -152 176q-73 0 -121.5 -51
t-48.5 -125q0 -87 164 -348q158 163 158 348zM606 260q0 123 -182 397q-229 -210 -229 -409q0 -98 47 -160q51 -68 147 -68t156.5 69t60.5 171z" />
    <glyph glyph-name="nine" unicode="9" 
d="M846 819q0 -224 -180 -485q-153 -218 -365 -381h-12l-17 22l7 13q426 358 426 880q0 293 -170 293q-127 0 -216 -143q-75 -124 -75 -260q0 -203 145 -203q91 0 152 107q45 77 63 184l6 6l25 -2l6 -10q-18 -144 -86 -258q-88 -148 -213 -148q-95 0 -149 76q-50 68 -50 166
q0 197 152 381q127 151 264 151q141 0 221 -129q66 -109 66 -260z" />
    <glyph glyph-name="colon" unicode=":" horiz-adv-x="522" 
d="M453 582q0 -45 -68 -45q-96 0 -96 38q0 107 30 107q-3 0 99 -18q35 -8 35 -82zM291 33q0 -39 -66 -39q-94 0 -94 33q0 110 31 110q21 -2 98 -22q31 0 31 -82z" />
    <glyph glyph-name="semicolon" unicode=";" horiz-adv-x="522" 
d="M479 582q0 -45 -67 -45q-93 0 -93 38q0 107 29 107h2q3 -1 8 -2t14.5 -2.5t19.5 -3.5t26 -4.5t31 -5.5q30 -8 30 -82zM360 80q0 -144 -278 -287l12 47q166 96 166 168q0 43 -41 43q-12 0 -53 -14l-8 8l24 92q9 41 82 41q96 0 96 -98z" />
    <glyph glyph-name="less" unicode="&#x3c;" horiz-adv-x="1705" 
d="M1442 88l-1178 483v82l1178 482v-109l-1024 -416l1024 -413v-109z" />
    <glyph glyph-name="equal" unicode="=" horiz-adv-x="1705" 
d="M1454 745h-1200v101h1200v-101zM1454 377h-1200v96h1200v-96z" />
    <glyph glyph-name="greater" unicode="&#x3e;" horiz-adv-x="1705" 
d="M1442 571l-1178 -483v109l1022 413l-1022 416v109l1178 -482v-82z" />
    <glyph glyph-name="question" unicode="?" horiz-adv-x="798" 
d="M807 1108q0 -125 -96 -291q-25 -44 -228 -332q-110 -158 -147 -272l-8 -6l-25 8v16q14 62 152 334q202 403 202 570q0 184 -145 184q-188 0 -268 -344l-6 -6h-25l-6 12q27 161 104 266q97 127 242 127q111 0 182.5 -76.5t71.5 -189.5zM391 33q0 -39 -65 -39q-95 0 -95 33
q0 110 29 110q7 0 100 -22q31 0 31 -82z" />
    <glyph glyph-name="at" unicode="@" horiz-adv-x="2021" 
d="M1872 764q0 -326 -221 -526q-125 -113 -252 -113q-194 0 -203 217q-120 -215 -319 -215q-129 0 -199 106q-62 94 -62 226q0 229 185 409q139 136 291 136q175 0 221 -199l59 180h117l-166 -602q-20 -70 -20 -111q0 -108 104 -108q107 0 223 108q203 194 203 496t-207 479
q-194 164 -504 164q-353 0 -598 -225q-276 -255 -276 -682q0 -333 248 -541q232 -199 571 -199q353 0 627 211l24 -34q-288 -217 -651 -217q-377 0 -612 184q-305 237 -305 629q0 408 335 692q266 221 629 221q335 0 539 -174q219 -189 219 -512zM1278 743q0 90 -49 154
q-53 74 -139 74q-108 0 -197 -133q-162 -241 -162 -455q0 -91 37 -147q42 -70 127 -70q138 0 254 180q129 200 129 397z" />
    <glyph glyph-name="A" unicode="A" horiz-adv-x="2514" 
d="M2497 -141q0 -203 -211 -203q-208 0 -310 215q-78 167 -78 393q0 143 31 307q-118 -51 -241 -79q-101 -326 -252 -488q-187 -199 -496 -199q-345 0 -575 271q-215 257 -215 610t229 612q239 273 586 273h67q182 256 518 256q288 0 459 -189q164 -181 164 -473
q0 -204 -45 -549q119 -27 172 -110l-27 -14q-62 77 -145 94q-43 -203 -43 -471q0 -426 235 -426q150 0 150 170h27zM2021 1180v49q-105 -60 -206 -324q-31 -75 -119 -375q19 0 96 27q85 31 137 43q1 7 13 53.5t12 57.5l31 202q36 243 36 267zM2021 1268q-21 225 -155 368
q-141 148 -365 148q-256 0 -430 -213q260 -40 410 -217q151 -177 151 -441v-69q143 171 189 346h32q-80 -263 -229 -385q-45 -202 -113 -305q-2 0 0.5 0.5t11.5 2t22.5 3.5t34 4.5t44.5 5.5l123 322q82 216 98 245q67 131 176 185zM1589 938q0 245 -147 408
q-149 163 -391 196q-101 -160 -101 -321q0 -189 113 -326q121 -145 305 -145q107 0 213 69q8 44 8 119zM1608 477q-102 -18 -125 -18q-175 -213 -432 -213q-201 0 -336 135q-133 136 -133 338q0 35 28 149l27 -6q-21 -65 -21 -151q0 -173 117 -299q120 -123 293 -123
q198 0 379 178q-86 30 -127 80l27 24q49 -62 120 -71q96 106 140 268q-104 -49 -197 -49q-199 0 -328 153q-120 147 -120 349q0 180 88 321q-353 -9 -586 -278q-225 -258 -225 -615q0 -318 206 -559q216 -246 531 -246q271 0 442 191q128 143 232 442z" />
    <glyph glyph-name="B" unicode="B" horiz-adv-x="2564" 
d="M2421 1577q-58 10 -90 10q-92 0 -193 -67q217 -202 217 -424q0 -132 -57 -213.5t-182 -132.5q172 -143 172 -326q0 -65 -9 -98v-41q69 -68 99 -166l-33 -17q-41 92 -82 131q-54 -196 -158 -317q-133 -160 -305 -160q-192 0 -192 207q0 35 10 80q-264 -295 -655 -295
q-367 0 -611 268q-237 263 -237 633q0 325 194 555q195 227 510 297q119 144 295 219q171 74 361 74q329 0 641 -250q100 82 204 82q17 0 101 -14v-35zM2198 1161q0 188 -93 326q-107 -118 -163 -338q-21 -77 -70 -375q-34 -218 -115 -465q113 92 248 92q59 0 111 -18
q14 112 14 166q0 116 -68 190q-7 0 -28.5 -4t-28.5 -4q-76 0 -76 43q0 33 51 33q35 0 82 -25q136 109 136 379zM1575 922q-24 252 -182 407q-164 158 -416 158q5 0 -0.5 -1t-23.5 -3.5t-46 -6t-69 -8.5q-101 -108 -101 -307q0 -188 129 -317q133 -127 320 -127
q215 0 389 205zM2105 342q-80 25 -100 25q-159 0 -262 -123q-103 -124 -103 -281q0 -63 35.5 -110.5t89.5 -47.5q122 0 230 215q66 141 110 322zM2073 1520q-256 239 -598 239q-356 0 -598 -239h108q245 0 416 -154q164 -152 207 -395q82 161 82 301q0 80 -33 182l24 14
q41 -102 41 -188q0 -187 -104 -367v-67q0 -256 -166 -443q-176 -194 -424 -194q-201 0 -338 131q-135 132 -135 334q0 78 25 147h32q-24 -95 -24 -147q0 -174 119 -299q119 -123 294 -123q233 0 400 188q159 179 174 416q-174 -174 -389 -174q-205 0 -344 139
q-137 140 -137 350q0 148 81 283q-288 -101 -452 -315q-170 -223 -170 -523q0 -330 215 -577q223 -258 549 -258q344 0 567 407q113 210 252 711q79 279 135 381q64 113 191 240z" />
    <glyph glyph-name="C" unicode="C" horiz-adv-x="2009" 
d="M1997 1413q0 -287 -187 -582q45 -73 58 -108q18 -53 18 -141q0 -216 -125 -445q-122 -228 -301 -342q101 -178 273 -299l-25 -35q-114 86 -164 142q-60 68 -119 178q-36 -12 -75 -12q-171 0 -279 182q-90 150 -96 334q-35 -6 -76 -6q-315 0 -514 219q-197 212 -197 528
q0 344 242 580q244 239 586 239q339 0 547 -231q130 121 247 121q102 0 152 -117q35 -84 35 -205zM1942 1499q0 71 -27 135q-37 80 -100 80q-97 0 -209 -160q34 -34 102 -176l-37 -18q-23 54 -41 90q-15 28 -53 80q-297 -441 -397 -1106l-9 -53q112 26 189 75
q94 455 321 455q52 0 76 -31q185 379 185 629zM1741 844q-27 20 -60 20q-187 0 -282 -385q234 157 342 365zM1532 1583q-166 221 -488 221q-326 0 -567 -243q-239 -242 -239 -570q0 -277 188 -477q189 -201 463 -201h86q33 714 557 1270zM1804 668q0 78 -22 133
q-161 -217 -387 -377q-11 -121 -11 -209q0 -214 66 -391q166 116 266 379q88 230 88 465zM1423 -180q-51 123 -69 207q-17 85 -17 217q0 18 6.5 80t6.5 79l-197 -90q-4 -94 -4 -161q0 -351 199 -351q37 0 75 19z" />
    <glyph glyph-name="D" unicode="D" horiz-adv-x="2545" 
d="M2458 1587q-28 8 -70 8q-113 0 -213 -75q227 -254 227 -670q0 -236 -69 -440l-9 -25q64 -74 78 -127l-39 -10q-12 55 -57 94q-228 -565 -543 -565q-83 0 -131.5 54t-48.5 140q0 9 3 37.5t3 36.5q-256 -268 -612 -268q-369 0 -615 282q-235 274 -235 648q0 341 203 579
q196 230 538 301q248 236 600 236q397 0 680 -269q129 76 228 76q47 0 82 -10v-33zM2324 909q0 179 -40 308q-41 126 -146 276q-88 -94 -145 -254q-53 -148 -111 -451q-59 -304 -106 -446q155 137 303 137q77 0 172 -43q73 247 73 473zM1589 944q-9 266 -168 436
q-161 174 -430 174h-104q-144 -200 -144 -364q0 -194 134 -326q136 -133 327 -133q210 0 385 213zM2251 395q-121 41 -178 41q-148 0 -250 -102q-89 -71 -137 -162q-60 -108 -60 -201q0 -69 40 -114t106 -45q177 0 311 215q67 101 168 368zM2122 1526q-121 130 -291.5 202
t-353.5 72q-313 0 -539 -205h8q294 0 472.5 -153t219.5 -441q76 183 76 322q0 63 -18 137l-8 33l26 8q37 -102 37 -184q0 -176 -113 -383q-18 -286 -157 -469q-159 -207 -434 -207q-198 0 -345 133q-143 131 -143 332q0 45 33 160l39 -6q-27 -74 -27 -146q0 -171 121 -301
q120 -129 291 -129q221 0 389 180q163 170 184 396q-200 -179 -385 -179q-208 0 -354 146q-143 143 -143 354q0 154 118 338q-292 -83 -475 -322q-180 -234 -180 -540q0 -338 219 -592q229 -262 563 -262q294 0 488 293q108 165 231 561q106 338 164 461q109 231 287 391z
" />
    <glyph glyph-name="E" unicode="E" horiz-adv-x="2664" 
d="M2810 1712q0 -138 -113 -229q-103 -84 -246 -84q-87 0 -247 43l-47 6q-113 -110 -172 -315q-34 -112 -76 -359q90 27 159 27q60 0 123 -31q78 -38 78 -90q0 -39 -33 -39q-17 0 -32 45q-25 76 -136 76q-64 0 -170 -31q-45 -239 -88 -364q-71 -203 -186 -324
q198 -125 512 -125q126 0 236 70q125 79 125 196q0 56 -41 56l-48 -21q-24 -12 -53 -12q-40 0 -67 34.5t-27 77.5q0 48 32.5 78.5t80.5 30.5q76 0 118 -76q33 -59 33 -145q0 -187 -127 -320t-313 -133q-137 0 -281 70q-101 50 -248 151q-274 -200 -575 -200q-360 0 -608 284
q-234 275 -234 641q0 376 236 639q243 275 614 275q175 190 512 190q136 0 385 -78l164 -51q336 -104 492 -104q110 0 161 24q74 34 74 131q0 14 -10 46l33 6q10 -38 10 -66zM2118 1473q-102 27 -209 71l-158 70q-275 121 -397 121q-186 0 -316 -121q278 -9 453 -199
q172 -187 172 -471q0 -62 -25 -199q8 0 31.5 -4t30.5 -4h22q17 60 17 68l49 139q71 197 125 291q69 117 205 238zM1624 963q0 251 -160 432q-168 188 -413 188h-56q-139 -180 -139 -381q0 -183 96 -317q108 -148 283 -148q147 0 233 103v61q0 68 45 68q31 0 31 -54
q0 -45 -31 -75q23 -48 76 -78q35 113 35 201zM1712 700h-29q-26 0 -59 11q-58 -187 -180 -295q-117 -105 -311 -156q5 -1 18.5 -3t22.5 -3l18 -6q31 -19 113 -64l96 -51q23 0 59 -24q79 109 240 544q0 20 12 47zM1581 731q-41 12 -94 74q-105 -105 -252 -105
q-193 0 -313 158q-109 145 -109 344q0 204 137 381l-43 -12q-314 -47 -518 -314q-199 -254 -199 -577q0 -337 216 -592q224 -268 557 -268q267 0 462 243q-137 95 -208 130q-119 55 -236 55h-49q-16 -8 -51 -8t-35 32q0 35 43 35q25 0 49 -6q9 0 38.5 -5t37.5 -5
q191 0 350 131q150 123 217 309z" />
    <glyph glyph-name="F" unicode="F" horiz-adv-x="2123" 
d="M2922 1729q-84 -125 -219.5 -199t-283.5 -74q-87 0 -181 19q-137 -107 -215 -310q-44 -128 -94 -372q74 14 131 14q56 0 144 -25l-17 -32q-101 24 -112 24q-57 0 -109 -10l-37 -8q-3 -14 -6.5 -32t-4.5 -24t-2 -10t-1 -2q-97 -451 -275 -655q-224 -256 -639 -256
q-368 0 -620 282q-242 273 -242 648q0 369 236 614q234 245 608 272q205 230 582 230q169 0 393 -76q347 -116 405 -131q115 -33 234 -33q100 0 170 43q59 35 127 121zM2187 1489q-204 64 -239 80l-230 100q-195 88 -317 88q-215 0 -367 -164q295 -9 471 -200
q178 -190 178 -484q0 -68 -26 -153q7 0 32 -3t29 -3q18 0 27 6q29 72 33 88q84 260 133 344q70 126 243 268zM1632 952q0 277 -176 441q-177 166 -455 166q-137 -133 -137 -357q0 -177 111 -315q117 -148 291 -148q138 0 229 119q-8 16 -8 51q0 76 43 76q26 0 26 -47
q0 -36 -18 -80q13 -47 70 -84q24 76 24 178zM1735 723q-10 -10 -27 -10q-4 0 -26.5 5t-30.5 5q-154 -463 -574 -463q-202 0 -344 133q-141 135 -141 338q0 95 24 162l37 -16q-28 -96 -28 -146q0 -171 123 -303q124 -131 296 -131q190 0 340 135q132 113 215 307
q-55 39 -86 78q-61 -64 -112.5 -87t-134.5 -23q-193 0 -318 155q-117 144 -117 340q0 183 119 357q-333 -47 -547 -299q-213 -257 -213 -590q0 -338 222 -590q229 -260 563 -260q249 0 411 196q144 174 332 664q16 40 17 43z" />
    <glyph glyph-name="G" unicode="G" horiz-adv-x="2279" 
d="M2306 1653q0 -168 -139 -416q-112 -195 -256 -363q-141 -162 -312 -268q25 -69 95 -69q62 0 129 67q168 170 356 170q57 0 57 -35q0 -25 -63 -28q-189 -6 -315 -572l-68 -301q-89 -400 -262 -590q-214 -231 -584 -231q-378 0 -620 258q-242 251 -242 631q0 551 561 786
q-160 177 -160 449q0 318 238 536q234 213 553 213q310 0 553 -245q190 196 323 196q81 0 119 -57q37 -49 37 -131zM2251 1696q0 112 -101 112q-104 0 -247 -239q39 -51 112 -207l-35 -19l-20 43q-14 32 -76 146q-97 -167 -188 -416q-103 -282 -103 -436v-33
q244 164 441 459q217 325 217 590zM1804 1624q-237 227 -526 227q-309 0 -533 -221q-223 -217 -223 -526q0 -199 158 -393q162 39 254 39q133 0 256 -45q138 -50 215 -140l31 10q10 4 40.5 14.5t47.5 16.5q-56 103 -56 240q0 371 336 778zM1368 553q-164 158 -424 158
q-101 0 -227 -41q203 -146 422 -146q147 0 229 29zM2111 735q-111 -21 -200 -98l-84 -72q-77 -65 -133 -65q-89 0 -152 82q-14 -11 -104 -52q149 -170 149 -391q0 -269 -162 -461q-167 -204 -434 -204q-200 0 -336 133q-133 133 -133 332q0 62 33 141l25 -17
q-15 -46 -15 -118q0 -177 107 -299q110 -129 284 -129q239 0 414 196q166 190 166 430q0 224 -145 381q-151 -45 -252 -45q-253 0 -459 174q-255 -95 -401 -297q-146 -203 -146 -469q0 -335 205 -577q218 -258 545 -258q307 0 497 289q55 84 115 200q65 127 172 465
q93 301 186 465q81 139 226 240q1 0 15 11.5t17 12.5z" />
    <glyph glyph-name="H" unicode="H" horiz-adv-x="2641" 
d="M2968 1456q0 -32 -27 -60t-59 -28q-30 0 -51 28t-21 60v33q0 74 -64 74q-134 0 -272 -283q-79 -165 -147 -397l-15 -49q116 -11 209 -111l-37 -25q-76 95 -164 95h-18q-14 -38 -14 -48q-16 -51 -33 -122q0 -33 -51 -220q-72 -270 -72 -426q0 -270 129 -270q144 0 209 227
l37 -8q-26 -102 -80 -168q-66 -84 -158 -84q-139 0 -219 156q-65 127 -65 279q0 257 106 604l18 61l-225 -51l-12 -76q-141 -872 -881 -872q-378 0 -626 274q-240 267 -240 649q0 358 221 594q218 230 576 279q90 90 168 129q93 41 206 41q115 0 240 -70l135 -76
q143 -82 271 -82q88 0 251 68q104 43 168 43h17v-35h-17q-209 0 -333 -295q-57 -129 -130 -469l-6 -69l226 61q81 274 231 498q201 299 424 299q73 0 131 -41q64 -43 64 -117zM2109 1505q-131 -32 -182 -32q-111 0 -205 38q-51 22 -184 103q-142 86 -252 86
q-197 0 -311 -129h41q270 0 450 -193q181 -190 181 -463q0 -100 -23 -184h82l33 94q82 245 84 260q80 252 286 420zM1606 934q0 258 -174 430q-171 174 -431 174h-61q-119 -161 -119 -352q0 -175 105 -314q112 -149 282 -149q156 0 246 102q-10 28 -10 49q0 76 43 76
q33 0 33 -57q0 -29 -25 -68q15 -45 86 -80q25 84 25 189zM1696 698h-82q-61 -204 -205 -321q-149 -125 -358 -125t-344 135q-136 135 -136 344q0 81 23 143l24 -6q-3 -28 -5.5 -55.5t-4 -43t-2.5 -28.5t-1.5 -16.5t-0.5 -1.5q0 -177 123 -303q122 -125 299 -125
q171 0 330 127q148 121 207 291q-53 26 -95 80q-98 -105 -260 -105q-184 0 -307 160q-113 149 -113 338q0 200 111 344q-326 -62 -524 -303q-199 -242 -199 -572q0 -333 217 -581q226 -256 553 -256q278 0 471 272q104 148 246 522z" />
    <glyph glyph-name="I" unicode="I" horiz-adv-x="2062" 
d="M2425 1790q-236 -76 -383 -449q-87 -222 -158 -598q139 53 238 238l22 -16q-99 -199 -266 -260q-50 -225 -80 -318q-59 -178 -147 -291q-121 -153 -297.5 -236t-378.5 -83q-374 0 -621 268q-239 265 -239 641q0 360 250 625q250 266 610 266q284 0 481 -191
q298 387 969 437v-33zM2306 1772q-274 -45 -444 -162q-188 -129 -306 -361q84 -159 84 -346q0 -56 -26 -160q34 -14 86 -14l18 51q152 420 269 625q130 226 319 367zM1599 938q0 141 -67 279q-59 -135 -59 -236q0 -147 102 -211q24 117 24 168zM1683 686q-56 14 -75 25
q-163 -463 -574 -463q-193 0 -340 133q-141 132 -141 330q0 69 35 159l24 -8q-18 -67 -18 -151q0 -177 121 -301q124 -121 301 -121q181 0 340 139q144 126 209 309q-211 150 -211 379q0 107 76 244q-187 184 -439 184q-339 0 -588 -270q-245 -268 -245 -612
q0 -330 219 -582q229 -260 555 -260q320 0 514 268q134 190 229 565z" />
    <glyph glyph-name="J" unicode="J" horiz-adv-x="2179" 
d="M2449 1722q-214 -42 -358 -403q-74 -187 -152 -551l-6 -51q124 53 217 217l31 -14q-51 -97 -108 -152q-59 -56 -158 -100q-94 -486 -184 -744q-150 -426 -394.5 -627.5t-578.5 -201.5q-353 0 -584 252q-221 242 -221 600q0 355 248 606q248 254 604 254q269 0 450 -189
q181 -185 181 -460q0 -258 -160 -447q-168 -198 -426 -198q-192 0 -330 129q-135 129 -135 321q0 32 25 156l30 -6q-24 -114 -24 -150q0 -165 119 -287q118 -122 284 -122q236 0 410 198q164 196 164 430q0 248 -168 420q-166 172 -414 172q-330 0 -571 -266
q-234 -258 -234 -590q0 -319 205 -549q210 -241 526 -241q283 0 473 202q146 155 265 463q117 302 278 860q-149 16 -246 133q-94 110 -94 265q0 322 377 518q284 150 659 188v-35zM2318 1708q-297 -46 -526 -256q-250 -232 -250 -518q0 -228 221 -252l31 106q65 207 82 256
q48 134 109 246q147 273 333 418z" />
    <glyph glyph-name="K" unicode="K" horiz-adv-x="2621" 
d="M2910 1544q0 -41 -27 -70.5t-65 -29.5q-39 0 -90 57q-32 62 -68 62q-156 0 -282 -367q-55 -163 -94 -227q-65 -103 -181 -158q83 -79 117 -145q35 -73 35 -181q0 -119 -10 -184l-35 -199q0 -17 -3 -78t-3 -79q0 -201 133 -201q33 0 94 18l6 -32q-120 -54 -192 -54
q-110 0 -174 95q-60 88 -60 198q0 97 49 344q43 211 43 287q0 122 -49 201q-24 -6 -43 -6q-100 0 -100 57q0 35 43 35q56 0 114 -49q164 48 234 258l68 200q48 147 143 240q109 109 248 109q149 0 149 -101zM2431 1544q0 -78 -88 -127q-71 -39 -158 -39q-63 0 -117 17
q-64 -101 -102 -221q-34 -105 -113 -482q-90 -426 -268 -635q-224 -262 -614 -262q-371 0 -615 268q-237 264 -237 637q0 356 223 600q225 246 578 277q8 14 24 25q172 186 436 186q218 0 416 -162l172 -139q17 -11 62 -33q162 172 301 172q40 0 70 -22.5t30 -59.5z
M2394 1536q0 59 -63 59q-138 0 -246 -170q43 -14 100 -14q65 0 131 29q78 37 78 96zM1587 926q0 273 -162 444q-161 174 -430 174h-61q-109 -164 -109 -323q0 -187 119 -324q127 -145 309 -145q185 0 334 174zM2005 1425l-27 11q-61 33 -223 135q-129 80 -231 125
q-90 39 -195 39q-214 0 -358 -148h24q259 0 428 -168q160 -153 207 -418q25 47 82 195l23 -10q-18 -108 -105 -260q-15 -278 -160 -459q-157 -201 -426 -201q-200 0 -337 125q-146 129 -146 326q0 24 25 170l32 -10q-24 -108 -24 -160q0 -171 121 -289q121 -115 295 -115
q214 0 379 170q153 157 188 379q-157 -145 -324 -145q-197 0 -331 155q-127 150 -127 349q0 167 92 315q-305 -35 -516 -295q-201 -254 -201 -565q0 -330 209 -580q221 -258 547 -258q292 0 479 254q124 167 240 518l143 426q35 99 72 174q23 50 145 215z" />
    <glyph glyph-name="L" unicode="L" horiz-adv-x="2179" 
d="M2087 1448q0 -349 -229 -680q-229 -329 -553 -449q-64 -157 -189 -299q262 -143 477 -143q124 0 242 53q139 68 139 183q0 34 -14 45q-3 6 -43 24q-70 34 -70 119q0 43 31 76t74 33q47 0 76 -50q22 -41 22 -94q0 -188 -137 -338q-141 -159 -326 -159q-122 0 -264 77
q-84 46 -231 156q-226 -215 -549 -215q-125 0 -226 66q-114 78 -114 192q0 121 106 193q91 63 219 63q175 0 473 -188q59 101 76 145h-86q-307 0 -512 229q-196 221 -196 533q0 350 254 586q247 229 602 229q283 0 506 -188q115 122 237 122q109 0 164 -112q41 -88 41 -209z
M2017 1489q0 246 -135 246q-81 0 -194 -146q67 -76 153 -239l-33 -15l-18 33q-78 140 -121 188q-117 -229 -237 -757q-82 -349 -109 -439q312 130 508 463q186 314 186 666zM1612 1624q-199 178 -457 178q-337 0 -575 -252q-240 -249 -240 -587q0 -282 186 -474
q188 -194 465 -194q53 0 92 6q66 153 207 645q79 279 144 412q58 119 178 266zM983 80q-135 80 -217 125q-128 61 -238 61q-109 0 -192 -53q-96 -65 -96 -168q0 -107 108 -168q87 -51 205 -51q255 0 430 254z" />
    <glyph glyph-name="M" unicode="M" horiz-adv-x="2785" 
d="M2900 1532q-149 -40 -231 -137q-61 -70 -127 -246q-93 -244 -156 -518q-80 -331 -80 -531q0 -288 195 -288q85 0 139 82l26 -11q-60 -119 -200 -119q-160 0 -250 146q-74 121 -74 291q0 249 105 577q99 317 243 535q-162 -131 -358 -482l-158 -290q-31 -53 -41 -68v344
q0 330 -35 473q-65 -120 -114 -325l-62 -291q-85 -386 -231 -586q-197 -262 -541 -262q-356 0 -598 278q-231 270 -231 631q0 348 229 596q231 251 576 277q189 225 487 225q396 0 545 -291q108 -211 108 -653v-107q179 331 330 490q220 227 504 284v-24zM1583 965
q0 255 -153 430q-162 180 -414 180q-38 0 -76 -10q-106 -143 -106 -324q0 -185 114 -317q120 -142 301 -142q189 0 334 183zM1890 1350q-52 195 -182 313q-139 127 -334 127q-231 0 -399 -182h33q248 0 419 -168q167 -164 197 -414q39 56 51 88q12 31 31 103l33 -9
q-43 -144 -115 -252q-3 -276 -156 -464q-164 -203 -436 -203q-199 0 -338 133q-135 135 -135 336q0 40 23 149l34 -8q-18 -59 -18 -131q0 -184 117 -307q121 -121 301 -121q222 0 385 172q155 166 182 387q-149 -149 -334 -149q-197 0 -325 149q-125 140 -125 342
q0 164 100 324q-323 -50 -528 -295q-207 -246 -207 -572q0 -325 219 -579q227 -260 549 -260q469 0 715 790l112 365q57 184 131 336z" />
    <glyph glyph-name="N" unicode="N" horiz-adv-x="2785" 
d="M3058 1548q0 -37 -23 -61.5t-59 -24.5q-45 0 -80 35t-47 35q-122 0 -277 -332q-88 -188 -164 -436q-6 -21 -69 -240q-39 -124 -88 -196v-49q0 -211 51 -347q73 -208 244 -208q74 0 151 77l37 -18q-81 -100 -221 -100q-249 0 -369 243q-88 180 -88 463q0 116 19 367
q16 245 16 342q0 150 -16 219q-100 -117 -172 -328q-29 -85 -95 -358q-38 -170 -61 -228q-37 -131 -76 -194q-67 -113 -117 -166q-213 -225 -563 -225q-378 0 -620 256q-244 256 -244 633q0 363 250 622q252 258 614 258q25 0 49 -6q188 209 480 209q392 0 616 -360
q140 104 320 133l8 -31q-117 -25 -168 -45q-68 -27 -146 -92q84 -133 95 -496l6 -211v-266q64 161 110 317q268 891 590 891q39 0 73 -24t34 -58zM1606 940q0 250 -152 416q-147 159 -397 200q-142 -181 -142 -372q0 -181 115 -314q121 -139 295 -139q139 0 264 94
q17 56 17 115zM2066 1362l-10 16q-59 183 -203 281q-139 92 -333 92q-232 0 -437 -170q249 -38 406 -215q158 -178 158 -426v-66q107 134 141 285l35 -6q-34 -114 -72 -186q-31 -64 -113 -160q-51 -244 -194 -387q-157 -160 -393 -160q-210 0 -346 127q-134 126 -134 336
q0 95 27 160l31 -9q-25 -63 -25 -143q0 -179 117 -305q117 -123 295 -123q192 0 352 139q151 130 209 322q-129 -66 -242 -66q-196 0 -327 146q-125 137 -125 340q0 143 108 336l17 28q-352 0 -594 -270q-238 -262 -238 -614q0 -347 230 -580q230 -234 577 -234
q252 0 436 146q103 80 158 199q70 144 195 536q80 258 112 334q76 184 182 297z" />
    <glyph glyph-name="O" unicode="O" horiz-adv-x="2127" 
d="M2062 1171q0 -445 -342 -1040q-57 -102 -112 -176q-52 -63 -152 -143q82 -186 252 -293l-14 -23q-111 66 -166 127q-60 66 -109 172q-53 -24 -90 -24q-186 0 -280 180q-71 133 -86 344h-60q-307 0 -506 223q-196 215 -196 522q0 344 245 578q245 233 592 233
q312 0 539 -227q138 105 227 105q84 0 132.5 -61t48.5 -155v-65q57 -64 69 -127q8 -33 8 -150zM1946 1475v32q0 65 -31 125q-37 70 -100 70q-103 0 -191 -119q62 -88 96 -158q80 64 150 64q44 0 76 -14zM1946 1430q-33 26 -76 26q-72 0 -137 -65q35 -82 67 -244l-37 -6
q-16 93 -55 219q-141 -161 -231 -414q-76 -214 -105 -467q478 323 574 951zM1694 1391q0 9 -45 84q-43 73 -43 75q-139 -183 -267 -538q-95 -273 -161 -582q-6 -14 -11 -30t-6 -17q77 18 176 70q64 578 357 938zM2015 1274q0 50 -30 133q-126 -644 -613 -971v-141
q0 -257 66 -449q94 64 164 166q41 59 112 207q106 224 197 518q104 341 104 537zM1554 1602q-200 206 -491 206q-326 0 -569 -239q-246 -237 -246 -561q0 -283 190 -482q189 -198 471 -198h54q15 344 174 694q161 360 417 580zM1405 -170q-76 204 -76 485q0 56 8 97
q-105 -52 -176 -72q-22 -138 -22 -219q0 -316 178 -316q43 0 88 25z" />
    <glyph glyph-name="P" unicode="P" horiz-adv-x="2377" 
d="M2497 1581l-9 -33q-29 8 -67 8q-127 0 -211 -75q184 -233 184 -473q0 -175 -88 -318q-103 -166 -266 -166q-110 0 -162 111l-14 -76q-154 -811 -881 -811q-377 0 -625 279q-239 271 -239 649q0 346 213 581q200 222 549 299q250 238 618 238q383 0 676 -281
q123 76 238 76q53 0 84 -8zM2261 1108q0 203 -94 346q-81 -90 -142 -252q-22 -58 -86 -280q77 72 160 86v-37q-194 -53 -194 -236q0 -162 110 -162q83 0 160 170q86 195 86 365zM1608 903q-9 274 -172 445q-168 176 -439 176q-56 0 -98 -11q-147 -153 -147 -354
q0 -192 133 -325q132 -134 325 -134q216 0 398 203zM2142 1495q-252 264 -653 264q-339 0 -549 -203q30 9 57 9q265 0 443 -168q176 -165 211 -432q84 141 84 303q0 45 -23 186l33 8q24 -129 24 -184q0 -208 -118 -375q-9 -282 -160 -471q-166 -205 -440 -205
q-206 0 -344 135q-140 137 -140 338q0 89 25 146h37q-29 -78 -29 -154q0 -174 125 -299q126 -123 301 -123q223 0 391 179q158 168 182 397q-165 -178 -397 -178q-205 0 -350 145q-141 147 -141 354q0 103 30 181q23 57 97 157q-303 -88 -486 -319q-182 -238 -182 -551
q0 -324 215 -580q227 -266 547 -266q167 0 319 96q142 96 230 242q57 95 102 209q33 87 152 440q88 261 153 389q88 162 254 330z" />
    <glyph glyph-name="Q" unicode="Q" horiz-adv-x="2220" 
d="M2513 -268q0 -161 -96.5 -261t-255.5 -100q-139 0 -244 99q-97 89 -133 231l-49 186q-39 100 -66 150q-169 -254 -338 -254q-178 0 -272 180q-76 134 -88 334h-62q-304 0 -512 219q-202 218 -202 528q0 343 243 586q245 242 590 242q315 0 559 -227q119 106 236 106
q79 0 133 -72q43 -64 43 -149q0 -39 -8 -64q82 -94 82 -295q0 -462 -353 -1062q36 -36 72 -84l59 -93l78 -174q138 -311 338 -311q70 0 121 45.5t51 112.5q0 43 -45 63q-86 26 -86 107q0 47 27.5 83t70.5 36q107 0 107 -162zM1958 1483v47q0 70 -33 123q-41 65 -102 65
q-89 0 -203 -123q76 -114 100 -163q82 75 164 75q28 0 74 -24zM1958 1448q-53 27 -86 27q-61 0 -137 -76q52 -145 61 -234l-37 -10q-16 121 -47 213q-269 -325 -328 -879q251 165 392 414q124 223 182 545zM1696 1407q-3 7 -47 80q-42 71 -47 76q-153 -232 -271 -570
q-106 -311 -153 -614q137 64 163 82q35 299 105 502q84 239 250 444zM2021 1286q0 68 -30 127q-64 -333 -197 -553q-144 -240 -410 -420q-10 -53 -10 -127h-33q-4 8 -4 25q0 8 2 36.5t2 37.5q-159 -71 -176 -76q-24 -105 -24 -203q0 -315 190 -315q100 0 189 86
q75 69 125 172q-70 90 -189 90q-134 0 -225 -141l-23 18q97 158 254 158q114 0 215 -68q75 134 127 279q217 593 217 874zM1554 1630q-132 105 -231 150q-124 53 -270 53q-334 0 -576 -248q-239 -245 -239 -581q0 -282 192 -474q194 -194 473 -194h60q51 641 563 1259z" />
    <glyph glyph-name="R" unicode="R" horiz-adv-x="2541" 
d="M2456 1563q-18 3 -36 5.5t-28 4t-18.5 2.5t-11 1.5t-1.5 0.5q-100 0 -182 -64q182 -187 182 -403q0 -280 -250 -367q109 -101 109 -251q0 -122 -51 -316q-47 -183 -47 -268q0 -133 108 -133q81 0 144 94l22 -19q-86 -133 -217 -133q-105 0 -168 78q-57 69 -57 182
q0 145 74 371l59 187q16 54 16 83q0 72 -61 117h-49q-19 0 -38.5 10t-19.5 23q0 33 52 33q30 0 86 -33q157 148 157 410q0 185 -94 305q-187 -190 -260 -666l-31 -199q-59 -371 -272 -593q-236 -242 -596 -242q-371 0 -621 274q-241 268 -241 643q0 337 217 584
q216 247 551 285q230 233 604 233q364 0 667 -258q103 68 207 68q50 0 95 -17v-32zM1595 928q-9 278 -182 446q-173 170 -448 170q-39 0 -72 -6q-143 -174 -143 -354q0 -185 127 -318q128 -131 315 -131q223 0 403 193zM2111 1513q-268 256 -624 256q-311 0 -555 -192h59
q267 0 436 -168q166 -158 199 -426q82 143 82 309q0 110 -31 176l31 15q45 -87 45 -197q0 -182 -127 -366q-3 -272 -160 -459q-168 -203 -432 -203q-200 0 -338 129q-137 131 -137 330q0 54 23 157l34 -6q-24 -88 -24 -151q0 -172 123 -295q124 -121 295 -121q214 0 385 180
q161 172 188 387q-181 -168 -381 -168q-207 0 -346 142q-139 145 -139 350q0 150 117 338q-286 -58 -482 -316q-188 -248 -188 -546q0 -327 215 -580q224 -262 547 -262q289 0 483 268q124 171 244 531l82 243q75 227 145 351q78 141 231 294z" />
    <glyph glyph-name="S" unicode="S" horiz-adv-x="2086" 
d="M2273 1448q0 -292 -401 -596v-76q0 -446 -197 -715q-221 -297 -653 -297q-391 0 -645 263q-252 264 -252 659q0 344 223 592q223 247 567 291q212 284 484 284q247 0 473 -235l-27 -25q-224 228 -440 228q-134 0 -252 -71.5t-188 -190.5q17 10 39 10q268 0 452 -193
t184 -463q0 -44 -4 -120q7 2 58 18q6 0 6 8q126 817 432 817q69 0 109 -61q32 -51 32 -127zM2214 1487q0 115 -82 115q-148 0 -215 -297q-36 -159 -45 -406q342 280 342 588zM1602 932q0 251 -177 422q-175 172 -428 172h-57q-63 -120 -63 -236q0 -232 170 -381
q162 -141 401 -141q76 0 135 18q19 68 19 146zM1700 776q-24 -7 -74 -24q-135 -506 -579 -506q-204 0 -345 127q-137 128 -137 332q0 89 39 159l25 -12q-25 -97 -25 -147q0 -170 119 -295t291 -125q202 0 352 135q134 119 211 323q-63 -8 -139 -8q-246 0 -422 152
q-182 159 -182 403q0 109 53 230q-306 -52 -512 -303q-203 -250 -203 -564q0 -339 219 -590q233 -256 565 -256q360 0 547 322q123 212 197 647z" />
    <glyph glyph-name="T" unicode="T" horiz-adv-x="2127" 
d="M2898 1700q-181 -289 -531 -289q-62 0 -176 27q-122 -109 -188 -297q-33 -96 -82 -346q-88 -477 -262 -713q-228 -305 -658 -305q-370 0 -620 280q-242 270 -242 648q0 359 244 606q239 237 600 270q194 203 524 203q131 0 385 -84q479 -162 654 -162q110 0 186 43
q71 45 137 133zM1626 883v55q0 274 -176 442q-174 168 -449 168q-137 -143 -137 -356q0 -193 113 -330q119 -149 309 -149q111 0 189 45q63 32 151 125zM2144 1448l-198 63l-205 95q-240 108 -375 108q-199 0 -332 -133q285 -20 453.5 -190t181.5 -453q55 99 90 240l35 -11
q-46 -173 -125 -303q-24 -256 -182 -428q-166 -178 -420 -178q-203 0 -340 131q-139 133 -139 334q0 82 24 160l35 -9q-24 -118 -24 -151q0 -179 120 -307q119 -125 301 -125q207 0 369 164q150 147 205 358q-162 -137 -332 -137q-200 0 -332 158q-123 147 -123 352
q0 210 119 362q-331 -52 -547 -301q-213 -251 -213 -585t220 -584q226 -258 555 -258q308 0 514 303q127 189 247 582q76 246 119 356q72 179 299 387z" />
    <glyph glyph-name="U" unicode="U" horiz-adv-x="2607" 
d="M2970 1423q0 -92 -84 -92q-62 0 -62 53v54q0 80 -84 80q-195 0 -377 -437q-54 -130 -188 -592l-86 -288q-49 -174 -49 -295q0 -76 24 -129q35 -72 99 -72q138 0 215 201l35 -19q-102 -227 -250 -227q-138 0 -215 152q-62 119 -62 270q0 30 6 76q2 15 11 75
q-81 -180 -134 -260q-113 -174 -219 -174q-92 0 -145 97q-43 82 -43 178q0 144 145 436l133 264q162 320 162 516q0 260 -198 418q-185 150 -449 150q-367 0 -639 -269q-268 -268 -268 -637q0 -277 174 -475q181 -211 452 -211q172 0 321.5 86t242.5 236l37 -17
q-99 -159 -258 -248.5t-343 -89.5q-296 0 -493 220q-193 211 -193 510q0 374 289 651q293 276 668 276q319 0 545 -188q239 -200 239 -512q0 -119 -26 -207q-26 -94 -150 -371l-135 -303l-92 -221q-51 -83 -51 -156q0 -92 81 -92q153 0 449 772l123 322q94 248 248 414
q190 211 415 211q67 0 119 -33q60 -42 60 -103z" />
    <glyph glyph-name="V" unicode="V" horiz-adv-x="2363" 
d="M3150 1614q0 -42 -30 -75.5t-71 -33.5q-57 0 -92 51l-22 33q-28 25 -53 25q-102 0 -304 -197q-150 -149 -247 -289q-418 -592 -559 -1284l-19 -57l-24 -10q-158 244 -158 493q0 141 67 443q82 359 82 549q0 253 -155 393q-151 135 -404 135q-371 0 -633 -262t-262 -633
q0 -279 170 -481q180 -211 457 -211q265 0 463 192t198 457q0 179 -124 324q-126 147 -302 147q-153 0 -303 -133l-14 33q162 133 317 133q200 0 332 -158q127 -151 127 -352q0 -281 -205 -479q-202 -201 -481 -201q-301 0 -502 219q-192 210 -192 518q0 378 293 651
q286 269 667 269q314 0 512 -195q199 -193 199 -506q0 -148 -25 -241q0 -32 -57 -269q0 3 -1 0t-4 -16t-5 -24.5t-8 -41.5t-10 -50.5t-13.5 -67t-15.5 -76.5q-33 -162 -33 -336q0 -86 23 -137q101 467 348 928q281 532 620 776q189 133 336 133q117 0 117 -86z" />
    <glyph glyph-name="W" unicode="W" horiz-adv-x="2842" 
d="M3478 1599q0 -41 -34 -70.5t-77 -29.5q-53 0 -92 57q-22 43 -56 43q-145 0 -380 -278q-185 -217 -291 -406q-149 -262 -256 -548q-122 -319 -160 -580l-16 -10q-158 236 -158 506q0 187 84 485l26 57q-16 -26 -32 -57q-261 -494 -336 -981l-23 -10q-153 243 -153 506
q0 124 24 241l60 283q69 324 69 448q0 251 -155 396q-156 139 -406 139q-356 0 -600 -274q-237 -266 -237 -623q0 -283 153 -479q170 -213 445 -213q260 0 442 188t182 451q0 179 -104 321q-113 156 -289 156q-130 0 -295 -127l-14 27q136 133 309 133q191 0 317 -168
q117 -154 117 -351q0 -270 -199 -469q-196 -196 -466 -196q-287 0 -478 227q-178 214 -178 506q0 366 264 645q267 279 631 279q304 0 504 -191q201 -192 201 -491q0 -133 -35 -326l-53 -274q-80 -407 -80 -541q0 -80 24 -147q102 531 502 1230l33 58l33 -15l-58 -352
l-69 -375q-43 -236 -43 -381q0 -82 30 -165q99 437 287 833q214 456 485 733q256 262 476 262q46 0 79 -18q46 -21 46 -64z" />
    <glyph glyph-name="X" unicode="X" horiz-adv-x="2660" 
d="M2888 1483q0 -47 -29 -85t-72 -38q-90 0 -90 100q0 8 3 29t3 29q0 32 -43 32q-104 0 -247 -125q-124 -105 -187 -215l-84 -145q-13 -11 -39 -49v-76l-10 -170l-8 -240q-1 -23 -4.5 -80.5t-5.5 -89.5q-7 -175 -7 -217q0 -185 33 -274q52 -143 207 -143q101 0 205 110
l24 -16q-95 -133 -243 -133q-206 0 -320 170q-98 145 -98 362q0 112 33 479q-92 -145 -168 -295q-162 -312 -293 -434q-188 -174 -477 -174q-368 0 -606 254q-232 250 -232 621q0 344 238 606q242 271 585 274q197 244 500 244q297 0 475 -197q172 -185 172 -489v-29
q36 66 39 70q318 459 594 459q58 0 105 -36.5t47 -88.5zM1606 889v51q0 238 -168 408q-172 170 -406 170h-51q-111 -164 -111 -338q0 -177 121 -310q119 -131 299 -131q194 0 316 150zM1942 1210q0 239 -123 389q-132 160 -369 160q-250 0 -446 -209q9 9 28 9
q256 0 430 -185q160 -171 189 -434q51 72 108 225h31q-49 -176 -139 -284q-9 -271 -172 -457q-173 -197 -441 -197q-194 0 -333 133q-138 132 -138 328q0 86 27 158l35 -6q-25 -69 -25 -152q0 -179 125 -301q127 -121 303 -121q216 0 379 178q149 162 188 387
q-157 -133 -319 -133q-196 0 -322 150q-120 146 -120 342q0 139 94 317q-316 -32 -539 -290q-217 -254 -217 -580q0 -332 223 -567q228 -240 557 -240q280 0 449 172q88 111 160 217q138 207 149 227l137 234l66 108q25 186 25 422z" />
    <glyph glyph-name="Y" unicode="Y" horiz-adv-x="2056" 
d="M2623 1419q0 -35 -24 -59.5t-59 -24.5q-68 0 -68 78q1 4 4 26.5t6 41.5q0 63 -94 63q-190 0 -322 -221q-96 -166 -139 -391l-43 -227q-175 -916 -901 -916q-369 0 -616 277q-240 267 -240 639q0 295 158 512q148 206 432 321q163 277 475 277q192 0 334 -103
q157 -115 157 -299q0 -175 -145 -397l-90 -133q0 5 -3 0t-8 -19t-14 -39q112 40 260 183l25 -17q-117 -148 -309 -217q-37 -110 -37 -156q0 -59 29 -100q33 -47 90 -47q131 0 237 309l72 203q76 211 233 387q190 211 383 211q85 0 146 -37q71 -47 71 -125zM1581 1520
q0 130 -129 204q-111 60 -250 60q-289 0 -438 -230q103 33 227 33q128 0 221 -33q82 -26 201 -98l-14 -37q-209 135 -408 135q-117 0 -260 -55q-57 -114 -57 -239q0 -218 143 -361t361 -143l18 4q20 4 31 4q22 160 145 338l109 158q100 143 100 260zM1632 512
q-76 -76 -151 -76q-121 0 -191 88q-63 82 -63 207h-49q-233 0 -387 150t-154 379q0 96 43 221q-232 -115 -369 -336q-135 -225 -135 -483q0 -321 215 -574q225 -264 541 -264q477 0 700 688z" />
    <glyph glyph-name="Z" unicode="Z" horiz-adv-x="2670" 
d="M2904 1751q-60 -135 -184 -225q-129 -94 -275 -94q-108 -104 -166 -191q-65 -100 -112 -225l-86 -223q-91 -236 -174 -394q-116 -216 -256 -344q282 -123 491 -123q131 0 238 70q123 83 123 205q0 41 -33 41q-13 0 -53 -17q-40 -16 -54 -16q-94 0 -94 92q0 52 33 89.5
t82 37.5q75 0 123 -76q41 -68 41 -143q0 -179 -144 -307q-143 -131 -323 -131q-187 0 -506 211q-284 -211 -600 -211q-363 0 -602 258q-234 252 -234 618q0 379 248 639q249 264 623 264q123 0 227 -43q199 289 535 289q109 0 219 -39q28 -10 209 -86q263 -112 407 -112
q149 0 260 194zM2394 1432q-170 25 -465 161q-169 76 -211 90q-54 19 -125 19q-176 0 -321 -195q379 -174 379 -575q0 -242 -135 -418q-127 -167 -363 -250q63 -14 170 -63l137 -62q0 -3 29 -18q190 247 375 610q120 237 225 381q123 161 305 320zM1602 950q0 359 -349 523
q-24 -61 -24 -93q0 -57 51 -57h43q35 0 59.5 -28.5t24.5 -65.5q0 -36 -31.5 -63t-70.5 -27q-59 0 -97 59q-30 53 -30 115q0 92 43 168l-15 6q-88 37 -190 37q-349 0 -592 -277q-234 -264 -234 -618q0 -328 213 -570q222 -247 547 -247q239 0 500 258q-201 149 -354 178
q-78 -15 -95 -15q-69 0 -69 31q0 33 84 33q48 0 80 -14q230 76 368 247q138 178 138 420z" />
    <glyph glyph-name="bracketleft" unicode="[" horiz-adv-x="851" 
d="M1208 1702l-10 -39l-14 -10h-221l-779 -2245h228l6 -16l-17 -37l-16 -10h-365l-2 14l820 2359h366z" />
    <glyph glyph-name="backslash" unicode="\" horiz-adv-x="686" 
d="M549 -274l-19 -15h-106l-6 15l-17 1910l15 9h63l10 -13z" />
    <glyph glyph-name="bracketright" unicode="]" horiz-adv-x="851" 
d="M1022 1702l-815 -2361h-367l-2 18l12 39l13 10h221l774 2243h-223l-10 18l18 37l14 12h365v-16z" />
    <glyph glyph-name="asciicircum" unicode="^" horiz-adv-x="2048" 
d="M1632 899h-88l-522 449l-524 -449h-86l528 563h168z" />
    <glyph glyph-name="underscore" unicode="_" horiz-adv-x="1026" 
d="M1026 -481h-1026v100h1026v-100z" />
    <glyph glyph-name="quoteleft" unicode="&#x2018;" horiz-adv-x="473" 
d="M500 1460l-11 -49q-170 -96 -170 -174q0 -39 46 -39q13 0 53 16l6 -10l-23 -88q-12 -49 -82 -49q-100 0 -100 100q0 152 281 293z" />
    <glyph glyph-name="a" unicode="a" horiz-adv-x="839" 
d="M1014 522q0 -33 -74 -133q-183 -243 -235 -299q-100 -106 -187 -106q-100 0 -100 100q0 60 59 229q-187 -325 -321 -325q-84 0 -129 65q-37 58 -37 148q0 196 200 381q136 123 304 123q92 0 180 -41l8 -11v-6q0 -24 -41 -164l-94 -317q-12 -41 -12 -70q0 -41 38 -41
q87 0 435 498q3 -18 4.5 -26t1.5 -5zM575 629q-34 28 -90 28q-101 0 -213 -157q-153 -219 -153 -357q0 -92 63 -92q96 0 236 248q89 161 157 330z" />
    <glyph glyph-name="b" unicode="b" horiz-adv-x="864" 
d="M1038 524q0 -35 -63 -129q-201 -299 -311 -299q-57 0 -93 47q-119 -159 -252 -159q-109 0 -161 86q-45 71 -45 188q0 330 282 827q146 256 258 332l11 -4q18 -27 18 -100q0 -283 -123 -541q-96 -203 -311 -465v-41q-2 -14 -2 -22q0 -195 119 -195q98 0 184 141
q-31 61 -31 136q0 218 135 350h9q26 -39 26 -105q0 -215 -88 -376q24 -50 64 -50q58 0 147 105q65 74 221 305q6 -9 6 -31zM571 1104q0 72 -18 137q-188 -243 -295 -846q313 371 313 709z" />
    <glyph glyph-name="c" unicode="c" horiz-adv-x="729" 
d="M913 530q0 -49 -67 -147q-281 -406 -576 -406q-112 0 -182 71t-70 183q0 160 132 310q152 170 311 170q69 0 114 -33q54 -39 54 -103q0 -52 -38.5 -87t-92.5 -35q-39 0 -62 30q76 34 76 105q0 76 -66 76q-76 0 -153 -99q-59 -78 -90 -168q-39 -97 -39 -184
q0 -180 162 -180q260 0 583 522q4 -12 4 -25z" />
    <glyph glyph-name="d" unicode="d" horiz-adv-x="831" 
d="M1001 518q0 -42 -139 -231q-130 -172 -184 -224q-88 -81 -166 -81q-100 0 -100 92q0 58 47 205q-169 -295 -297 -295q-86 0 -131 61q-37 58 -37 145q0 195 162 363q146 152 297 152q30 0 106 -29l148 573q6 26 12.5 34.5t23.5 12.5l82 9q19 0 19 -19q0 -3 -2 -12t-2 -12
l-291 -1080q-14 -49 -14 -80q0 -53 32 -53q41 0 150 127q108 129 278 371q6 -18 6 -29zM543 606q-34 49 -78 49q-65 0 -164 -118q-180 -217 -180 -394q0 -94 69 -94q103 0 222 236q78 147 131 321z" />
    <glyph glyph-name="e" unicode="e" horiz-adv-x="724" 
d="M907 535q0 -64 -88 -181q-272 -377 -559 -377q-110 0 -175 70.5t-65 183.5q0 159 130 316q137 164 292 164q71 0 120.5 -38t49.5 -102q0 -124 -170 -235q-119 -79 -280 -129q0 -174 151 -174q156 0 342 198q122 127 246 328q6 -18 6 -24zM492 582q0 80 -68 80
q-104 0 -184 -160q-61 -122 -78 -248q131 30 221 113q109 95 109 215z" />
    <glyph glyph-name="f" unicode="f" horiz-adv-x="593" 
d="M782 553q0 -54 -84 -168q-115 -159 -188 -219q-98 -78 -207 -78q-77 0 -141 43q63 -183 63 -305q0 -279 -205 -416l-8 4q-24 34 -24 217q0 200 88 533q-111 58 -111 80q3 9 10 16l27 43q9 12 16 12q14 0 25 -8l53 -35q215 945 416 1160h10q43 -52 43 -224
q0 -428 -313 -753q-12 -113 -55 -246q63 -51 151 -51q99 0 201 106q67 70 231 316q0 -9 2 -15v-12zM485 1044q0 108 -36 205q-33 -82 -76 -286q-46 -219 -97 -410q209 222 209 491zM178 -162q0 90 -28 182q-117 -279 -117 -458v-39q145 107 145 315z" />
    <glyph glyph-name="g" unicode="g" horiz-adv-x="843" 
d="M1016 528q0 -44 -70 -133q-273 -352 -463 -477q-88 -382 -387 -508l-12 4q-14 21 -14 64q0 247 301 440q9 138 108 404q-177 -322 -329 -322q-81 0 -125 63q-37 55 -37 140q0 188 162 344q164 158 350 158q182 0 182 -58q0 -39 -66 -262l-122 -403q202 138 520 573
q2 -6 2 -27zM573 625q-26 32 -84 32q-86 0 -198 -133q-176 -212 -176 -368q0 -88 67 -88q98 0 236 237q89 155 155 320zM371 -141q-207 -126 -207 -299q0 -30 8 -58q156 81 199 357z" />
    <glyph glyph-name="h" unicode="h" horiz-adv-x="933" 
d="M1108 512q0 -53 -150 -236q-236 -288 -342 -288q-116 0 -116 121q0 44 71 251q66 192 66 220q0 43 -37 43q-88 0 -293 -310q-65 -96 -127 -225q-36 -77 -59 -80l-78 -12q-2 0 -4 -2h-6q-15 0 -15 18q0 11 7 31l118 430q76 272 176 512q155 356 297 434h7q45 -53 45 -151
q0 -308 -371 -703l-84 -313q296 446 436 446q51 0 83 -33.5t32 -84.5q0 -44 -45 -172l-70 -205q-20 -56 -20 -101q0 -34 41 -34q112 0 434 479q4 -20 4 -35zM559 1161q0 81 -24 125q-62 -71 -115 -237q-47 -150 -98 -392q237 257 237 504z" />
    <glyph glyph-name="i" unicode="i" horiz-adv-x="505" 
d="M418 963q0 -93 -41 -93q-26 0 -72 19q-51 20 -51 45q0 19 25 57q24 43 34 43q7 0 35 -17t31 -20q39 -17 39 -34zM686 535q0 -49 -111 -199q-257 -346 -419 -346q-119 0 -119 123q0 37 31 131l129 403q14 32 41 35l75 16h6q15 0 15 -16l-4 -12l-140 -430q-28 -93 -28 -134
q0 -57 51 -57q120 0 469 512q0 -3 2 -13t2 -13z" />
    <glyph glyph-name="j" unicode="j" horiz-adv-x="497" 
d="M430 963q0 -93 -39 -93q-26 0 -72 19q-49 21 -49 45q0 14 23 57q21 43 33 43q6 0 14 -4.5t29.5 -17.5t48.5 -27q12 -9 12 -22zM688 528q0 -49 -113 -186q-301 -370 -481 -479l-94 -316q-30 -105 -43 -127l-6 2q-25 49 -25 138q0 315 113 446q8 119 45 252l106 395
q11 36 37 39l80 15h8q19 0 19 -19q-1 -5 -2.5 -11t-1.5 -7l-221 -744q183 114 573 627q6 -15 6 -25z" />
    <glyph glyph-name="k" unicode="k" horiz-adv-x="937" 
d="M1114 530q0 -36 -86 -157q-277 -379 -410 -379q-72 0 -149 104q-74 100 -74 172q0 20 66 52q231 107 231 213q0 71 -80 71q-126 0 -352 -354q-69 -111 -104 -209q-13 -32 -50 -41l-69 -12q-2 0 -4 -2h-6q-19 0 -19 14q0 6 6 25l183 647q68 240 151 411q124 259 262 340
l13 -2q41 -41 41 -143q0 -313 -367 -709l-84 -323q273 457 475 457q56 0 94.5 -34.5t38.5 -88.5q0 -141 -315 -281q71 -225 158 -225q111 0 444 483q6 -9 6 -29zM559 1141q0 90 -24 162q-61 -55 -113 -224q-22 -71 -100 -415q237 249 237 477z" />
    <glyph glyph-name="l" unicode="l" horiz-adv-x="647" 
d="M825 524q0 -36 -108 -188q-258 -354 -420 -354q-99 0 -147 77q-41 68 -41 172q0 102 73 416q57 239 178 492q111 226 199 284l14 2q33 -32 33 -147q0 -436 -342 -875q-20 -87 -20 -172q0 -176 98 -176q96 0 268 213q69 85 209 293zM498 1057q0 81 -19 186
q-155 -303 -207 -758q226 294 226 572z" />
    <glyph glyph-name="m" unicode="m" horiz-adv-x="1335" 
d="M1507 524q0 -46 -102 -184q-131 -176 -217 -262q-96 -90 -184 -90q-45 0 -75 30.5t-30 77.5q0 85 70 264q69 181 69 222t-43 41q-91 0 -321 -379q-31 -53 -92 -176q-32 -65 -54 -68l-69 -10h-6q-23 0 -23 10q0 14 6 27l135 491q15 48 15 70q0 41 -33 41q-87 0 -299 -363
q-47 -78 -98 -194q-31 -67 -47 -70l-89 -12h-6q-14 0 -14 12q0 23 2 29l188 616q8 23 31 29l82 18h10q17 0 17 -18q0 -8 -2 -12l-127 -416q109 194 168 270q135 187 237 187q111 0 111 -99q0 -50 -92 -362q276 454 432 454q102 0 102 -116q0 -47 -31 -136l-63 -182
q-37 -118 -37 -151q0 -45 45 -45q50 0 158 122q84 96 274 363q2 -4 2 -29z" />
    <glyph glyph-name="n" unicode="n" horiz-adv-x="927" 
d="M1102 524q0 -43 -150 -235q-232 -301 -346 -301q-50 0 -83.5 35.5t-33.5 89.5q0 49 86 305q54 160 54 170q0 30 -35 30q-81 0 -287 -292q-104 -148 -145 -244q-18 -46 -21 -49q-15 -25 -39 -31l-75 -8h-9q-18 0 -18 14q0 21 2 25l182 596q24 47 49 53l70 16q2 2 16 2
q15 0 15 -18l-4 -12l-140 -443q311 478 459 478q49 0 81 -34t32 -83q0 -59 -51 -203q-86 -243 -86 -279q0 -32 39 -32q91 0 432 479z" />
    <glyph glyph-name="o" unicode="o" horiz-adv-x="858" 
d="M1044 547q0 -45 -88 -162q-108 -149 -188 -229q-81 -80 -137 -80q-45 0 -78 37q-137 -138 -283 -138q-118 0 -188 70t-70 188q0 171 144 322q144 156 311 156q102 0 168 -78q63 -75 63 -184q0 -110 -80 -252q11 -41 52 -41q47 0 135 106q76 89 233 309q6 -30 6 -24z
M592 524q-28 144 -133 144q-76 0 -154 -90q-54 -64 -94 -158q-49 -116 -49 -223q0 -179 129 -179q100 0 215 172q-12 35 -12 76q0 127 98 258z" />
    <glyph glyph-name="p" unicode="p" horiz-adv-x="894" 
d="M1085 549q0 -60 -116 -209q-125 -162 -197 -223q-136 -121 -260 -121q-57 0 -127 27q-90 34 -90 79q0 19 47 43q9 4 31 15.5t35 17.5q223 129 223 322q0 106 -94 106q-123 0 -291 -287q-177 -780 -269 -917h-8q-30 99 -30 246q0 273 157 561l66 352q23 117 65 127l88 19
q15 0 15 -21v-10l-58 -236q201 271 346 271q75 0 118.5 -48.5t43.5 -127.5q0 -227 -327 -408q36 -59 114 -59q183 0 512 507q6 -9 6 -26zM80 80q-96 -157 -96 -412q0 -57 16 -102q45 92 80 514z" />
    <glyph glyph-name="q" unicode="q" horiz-adv-x="825" 
d="M1001 528q0 -44 -102 -176q-138 -176 -184 -219q-79 -76 -148 -76q-31 0 -49 6v-24q0 -333 -305 -629l-10 4q-6 16 -6 64q0 123 67 334q56 172 172 467q-162 -283 -293 -283q-80 0 -127 65q-34 60 -34 146q0 157 133 311q162 187 362 187q185 0 185 -58q0 -25 -82 -289
l-74 -237q28 -19 59 -19q80 0 238 197q46 57 188 260q10 -17 10 -31zM553 629q-28 28 -80 28q-93 0 -178 -98q-195 -219 -195 -403q0 -95 72 -95q144 0 381 568zM477 43v12q-229 -425 -246 -551q112 98 179 244.5t67 294.5z" />
    <glyph glyph-name="r" unicode="r" horiz-adv-x="661" 
d="M840 547q0 -33 -31 -84q-3 -8 -80 -111q-163 -222 -219 -278q-95 -92 -180 -92q-133 0 -133 127q0 146 215 464q-125 -79 -193 -79q-80 0 -80 71q0 60 36 110t89 54l2 -6q-22 -52 -22 -66q0 -51 59 -51q46 0 244 70l8 -6q-227 -481 -227 -555q0 -58 55 -58q56 0 166 131
q59 74 285 383q6 -9 6 -24z" />
    <glyph glyph-name="s" unicode="s" horiz-adv-x="737" 
d="M922 553q0 -73 -125 -231q-105 -138 -187 -203q-101 -80 -215 -92q-106 -45 -192 -45q-72 0 -125 20q-76 31 -76 92q0 43 39 68q35 22 78 22q30 0 57 -12v-6q-39 -24 -39 -70q0 -69 107 -69q68 0 116 30q58 34 58 99q0 47 -33 86q-34 34 -90 77q-107 87 -109 89
q-43 43 -43 92q0 98 111 159q94 52 199 52q141 0 141 -95q0 -45 -49 -75q-41 -26 -92 -29l-7 12q39 33 39 76q0 62 -84 62q-48 0 -90 -25q-47 -30 -47 -76q0 -43 47 -88q19 -13 119 -90q107 -82 107 -164q0 -59 -60 -125q162 22 436 481q9 -5 9 -22z" />
    <glyph glyph-name="t" unicode="t" horiz-adv-x="518" 
d="M688 530q0 -48 -96 -182q-267 -366 -410 -366q-133 0 -133 127q0 64 41 204l86 293h-113l-2 12l7 29l12 10h115l84 265q13 41 40 47l72 16h10q11 0 11 -14v-15l-84 -299h106l2 -10l-6 -31l-8 -10h-109l-123 -418q-14 -45 -14 -92t49 -47q131 0 457 510q6 -9 6 -29z" />
    <glyph glyph-name="u" unicode="u" horiz-adv-x="921" 
d="M1102 547q0 -48 -121 -217q-248 -346 -383 -346q-109 0 -109 118q0 67 99 340q-311 -458 -463 -458q-105 0 -105 106q0 30 29 125l139 428q7 21 13 28t24 11l84 16h10q15 0 15 -16q-1 -5 -2.5 -11t-1.5 -7l-164 -474q-16 -69 -16 -88q0 -41 38 -41q66 0 218 191
q98 125 176 248q7 10 63 125q25 51 53 57l76 18h6q19 0 19 -18q0 -3 -6 -18l-158 -467q-19 -59 -19 -91q0 -43 39 -43q98 0 437 510q10 -17 10 -26z" />
    <glyph glyph-name="v" unicode="v" horiz-adv-x="862" 
d="M1038 518q0 -37 -110 -188q-172 -234 -271 -234q-64 0 -104 82q-138 -196 -270 -196q-146 0 -146 258q0 87 29 346q6 63 10 67q6 17 31 23l76 18q1 1 3 2t3 2q18 0 18 -28q0 -67 -24 -211q-23 -149 -23 -221q0 -177 86 -177q97 0 184 170q-12 52 -12 95q0 101 70 204
q58 93 151 158l13 -2q6 -12 6 -33q0 -193 -172 -428q18 -82 82 -82q56 0 145 105q55 67 219 299q6 -6 6 -29z" />
    <glyph glyph-name="w" unicode="w" horiz-adv-x="1325" 
d="M1495 522q0 -51 -104 -196q-166 -230 -269 -230q-90 0 -125 105q-202 -219 -329 -219q-131 0 -131 149q0 62 57 281q-249 -428 -418 -428q-119 0 -119 137q0 41 23 131l108 401q3 26 31 29l82 12q3 0 7 2t5 2q13 0 13 -12q0 9 -3 -2q-1 -6 -4 -20l-116 -416
q-25 -88 -25 -121q0 -66 60 -66q109 0 309 355q19 35 86 188q27 70 65 76l78 14h10q9 0 9 -12q0 -16 -2 -25l-107 -362q-29 -106 -29 -162q0 -84 72 -84q95 0 260 203q-8 65 -8 90q0 102 41 198.5t113 151.5l10 -4q22 -28 22 -96q0 -150 -129 -344q9 -105 88 -105
q105 0 367 406q2 -6 2 -27z" />
    <glyph glyph-name="x" unicode="x" horiz-adv-x="892" 
d="M1063 524q0 -39 -113 -188q-265 -352 -397 -352q-89 0 -156 86q-39 52 -90 168l-164 -205q-101 -127 -166 -127t-65 71q0 82 84 142l4 -4l-4 -40v1q0 -51 47 -51q37 0 96 71l144 183l-168 374q-2 2 -2 11q0 15 18 18l76 12q1 0 4 2t4 2q12 0 23 -24l122 -273l162 193
q89 104 154 104q37 0 61.5 -31t24.5 -73q0 -78 -62 -158q-52 -71 -129 -110l-6 8q109 118 109 213q0 53 -56 53q-43 0 -157 -141l-78 -99l76 -163q59 -129 135 -129q88 0 258 206q93 120 205 279q6 -9 6 -29z" />
    <glyph glyph-name="y" unicode="y" horiz-adv-x="921" 
d="M1096 522q0 -48 -121 -196q-262 -321 -416 -430q-107 -392 -383 -494l-12 2q-14 43 -14 86q0 221 305 442q8 72 120 471q-248 -403 -438 -403q-104 0 -104 119q0 25 28 121l129 413q11 26 43 29l86 10q11 0 11 -10q-2 -6 -4 -18l-148 -467q-12 -41 -12 -84q0 -39 41 -39
q112 0 334 348q51 84 104 192q32 65 53 68l88 12q15 0 15 -12l-70 -197q-100 -288 -156 -520q219 178 515 584q6 -21 6 -27zM453 -129q-213 -144 -213 -309q0 -34 14 -72q155 79 199 381z" />
    <glyph glyph-name="z" unicode="z" horiz-adv-x="729" 
d="M899 510q0 -34 -147 -227q-235 -306 -357 -306q-14 0 -119 23q-92 20 -186 33q-40 -49 -76 -49q-14 0 -14 10q0 8 2 14l68 129q12 25 32 25h23l348 379q-158 34 -188 34q-38 0 -72 -49q-31 -49 -43 -49q-33 0 -33 21q0 16 13 43q5 14 10 29t6 16q21 81 31 90q16 29 61 29
q10 0 109 -17q151 -29 208 -35q52 58 74 58q25 0 25 -11q0 -13 -37 -53l-465 -497q240 -66 289 -66q72 0 178 121q74 83 254 348q6 -18 6 -43z" />
    <glyph glyph-name="braceleft" unicode="{" horiz-adv-x="1230" 
d="M1016 -350h-15q-248 0 -344 84q-104 89 -104 329v259q0 189 -74 260q-72 69 -266 86v69q201 17 268 84q72 72 72 262v258q0 242 104 334q96 84 344 84h15v-59q-182 0 -244 -68q-61 -67 -61 -252v-172q0 -254 -64 -352q-75 -116 -295 -156q221 -39 295 -153
q64 -101 64 -352v-177q0 -179 61 -243q62 -65 244 -68v-57z" />
    <glyph glyph-name="bar" unicode="|" horiz-adv-x="1230" 
d="M680 -639h-131v2456h131v-2456z" />
    <glyph glyph-name="braceright" unicode="}" horiz-adv-x="1230" 
d="M1016 668q-194 -17 -266 -86q-74 -70 -74 -260v-259q0 -242 -105 -331q-92 -82 -346 -82h-10v57q179 3 244 68q63 63 63 243v177q0 252 62 352q70 114 290 153q-219 41 -290 156q-62 100 -62 352v172q0 179 -65 250q-64 70 -242 70v59h10q252 0 346 -84q105 -89 105 -334
v-258q0 -192 76 -264q68 -65 264 -82v-69z" />
    <glyph glyph-name="asciitilde" unicode="~" horiz-adv-x="1705" 
d="M1530 637q-198 -143 -385 -143q-97 0 -295 67q-198 70 -285 70q-157 0 -387 -160v111q212 147 387 147q95 0 287 -67q209 -74 293 -74q159 0 385 162v-113z" />
    <glyph glyph-name="exclamdown" unicode="&#xa1;" horiz-adv-x="681" 
d="M770 1255q0 -106 -25 -106q-5 0 -104 18q-31 0 -31 82q0 47 66 47q94 0 94 -41zM674 1047l-283 -1014q-9 -33 -39 -33l-127 -6q-16 0 -16 14l2 10q2 10 2 13l436 1032l21 -4z" />
    <glyph glyph-name="cent" unicode="&#xa2;" 
d="M825 928l-26 -35h-13q-78 69 -133 72l-164 -676q143 9 263 176h12l43 -49v-8q-114 -152 -330 -164l-59 -244l-64 -23l64 263q-248 39 -248 295q0 218 184 380q105 93 250 99l53 227l66 27l-61 -258q118 -20 163 -66v-16zM592 969q-86 -6 -150 -88q-145 -183 -145 -389
q0 -168 133 -201z" />
    <glyph glyph-name="sterling" unicode="&#xa3;" horiz-adv-x="997" 
d="M997 322l17 -13q-123 -169 -221.5 -241t-202.5 -72q-77 0 -205 78q-132 -78 -270 -78q-88 0 -145.5 33t-57.5 84q0 44 43 73t111 29q119 0 262 -74q63 116 106 230q-42 12 -74 12q-54 0 -120 -51l-11 16q92 70 187 70q15 0 37 -4l71 164q-6 -3 -22 -3q-112 0 -187 76
t-75 189q0 141 137 254q137 112 311 112q43 0 86 -10l-4 -18q-36 8 -76 8q-193 0 -301 -148q-88 -119 -88 -254q0 -84 52 -136t137 -52q28 0 38 2q110 241 216 377q175 225 315 225q54 0 90.5 -42.5t36.5 -104.5q0 -145 -189 -287q-147 -111 -278 -154q-23 -95 -78 -231
q65 -21 113 -21q46 0 88 31l8 -16q-62 -45 -125 -45q-31 0 -106 10q-83 -167 -211 -250q127 -74 190 -74q179 0 395 306zM729 635q195 65 326 272q84 134 84 197q0 76 -78 76q-187 0 -332 -545zM313 117q-144 78 -256 78q-52 0 -88.5 -24.5t-36.5 -57.5q0 -42 49.5 -70.5
t122.5 -28.5q129 0 209 103z" />
    <glyph glyph-name="yen" unicode="&#xa5;" horiz-adv-x="860" 
d="M614 569l17 -2q12 -2 24 -3.5t20.5 -2.5t17.5 -2t14.5 -2t11.5 -1.5t8.5 -1t5.5 -1l3 -0.5h-1q35 0 76 29l8 -19q-65 -41 -119 -41q-59 0 -90 8l-16 5q-5 -11 -23 -44.5t-30 -56.5l16 -2q12 -2 24 -3.5t20.5 -2.5t17.5 -2t15 -2t12 -1.5t8.5 -1t5.5 -1t2 -0.5q35 0 75 28
l8 -18q-61 -41 -118 -41q-50 0 -90 8l-15 4q-137 -271 -137 -387q0 -35 14 -90q-35 -16 -63 -16q-137 0 -137 145q0 84 77 217q54 92 109 156l-18 2q-52 10 -64 10q-48 0 -113 -47l-12 17q85 63 160 63q15 0 57 -6l17 -4l59 73l6 23l-37 6q-24 3 -43 6.5t-20 3.5
q-48 0 -113 -47l-12 17q86 63 158 63q29 0 59 -6l20 -4l66 219q33 106 33 158q0 112 -90 112q-120 0 -224 -110q-110 -118 -110 -223q0 -52 53 -52q43 0 79.5 38.5t98.5 148.5l19 -6q-110 -203 -197 -203q-32 0 -54 21.5t-22 52.5q0 123 131 251q113 113 256 113
q76 0 127.5 -43.5t51.5 -109.5q0 -26 -17 -84l-49 -160l162 215q141 188 266 188q60 0 101.5 -36t41.5 -87q0 -41 -27 -70.5t-65 -29.5q-32 0 -56 22.5t-24 53.5q0 46 41 76q21 11 21 24q0 25 -35 25q-104 0 -231 -176q-110 -157 -222 -353z" />
    <glyph glyph-name="florin" unicode="&#x192;" horiz-adv-x="692" 
d="M430 745l-254 -743q41 -39 57 -96l-22 -6q-12 37 -45 77l-55 -159q-58 -174 -164 -174q-56 0 -89.5 41t-33.5 108q0 104 67 187q64 79 150 79q24 0 51 -8l240 707q-29 6 -39 6q-34 0 -94 -23l-9 21q59 24 103 24q16 0 47 -6l158 463q29 86 85 137.5t119 51.5
q105 0 105 -119q0 -60 -29.5 -101t-72.5 -41q-56 0 -56 54q0 46 78 61q43 9 43 49q0 62 -49 62q-63 0 -107 -115l-16 -43l-160 -471q22 -6 49 -6q39 0 84 18l11 -22q-39 -19 -88 -19q-36 0 -64 6zM82 25q-24 6 -37 6q-71 0 -131 -72q-59 -74 -59 -170q0 -100 67 -100
q41 0 82 116z" />
    <glyph glyph-name="section" unicode="&#xa7;" 
d="M571 932l19 14q-60 66 -60 141q0 125 111 236q113 113 238 113q74 0 135 -52q63 -47 63 -118q0 -42 -27.5 -71.5t-68.5 -29.5q-62 0 -74 58q-9 43 49 90q23 15 17 45q-12 55 -88 55q-13 0 -41 -4q-80 -17 -133.5 -78t-53.5 -133q0 -87 121 -199q122 -108 137 -186
q5 -23 5 -45q0 -202 -261 -397q54 -80 54 -148q0 -123 -117 -239q-116 -119 -240 -119q-72 0 -129 45q-65 47 -65 113q0 85 76 100q73 14 90 -57q9 -48 -35 -74q-37 -28 -31 -53q9 -54 90 -54q90 0 158 74q70 73 70 166q0 83 -105 190q-85 93 -102 119q-26 38 -35 90
q-8 28 -8 60q0 67 43 143q42 79 198 205zM692 831l-80 82q-161 -122 -161 -256q0 -13 4 -39q9 -40 94 -133l86 -92q156 135 156 260q0 77 -99 178z" />
    <glyph glyph-name="currency" unicode="&#xa4;" horiz-adv-x="1638" 
d="M608 227l174 183q-112 137 -112 297q0 164 112 297l-182 180l35 35l180 -179q138 117 303 117q169 0 301 -117l183 179l34 -35l-180 -180q113 -132 113 -297q0 -166 -113 -297l182 -183l-36 -34l-181 180q-137 -113 -301 -113q-162 0 -299 113l-178 -180zM1124 1106
q-167 0 -284 -117q-115 -115 -115 -282q0 -163 115 -281q118 -115 280 -115q164 0 279 115q114 117 114 281q0 163 -114 280q-113 119 -275 119z" />
    <glyph glyph-name="quotesingle" unicode="'" horiz-adv-x="346" 
d="M252 1366q0 -23 -4 -43l-60 -455h-30l-62 455l-6 43q0 96 82 96q80 0 80 -96z" />
    <glyph glyph-name="quotedblleft" unicode="&#x201c;" horiz-adv-x="782" 
d="M811 1460l-16 -49q-166 -94 -166 -174q0 -39 41 -39q18 0 55 16l10 -10l-24 -88q-16 -49 -82 -49q-101 0 -101 100q0 151 283 293zM500 1460l-11 -49q-170 -96 -170 -174q0 -39 46 -39q13 0 53 16l6 -10l-23 -88q-12 -49 -82 -49q-100 0 -100 100q0 152 281 293z" />
    <glyph glyph-name="guillemotleft" unicode="&#xab;" horiz-adv-x="1705" 
d="M1454 723h-551v-346h-98v346h-551v98h551v346h98v-346h551v-98zM1454 51h-1200v99h1200v-99z" />
    <glyph glyph-name="guilsinglleft" unicode="&#x2039;" horiz-adv-x="647" 
d="M635 623q0 -14 -29 -41l-246 -228l62 -254q6 -24 6 -30q0 -27 -18 -27q-19 0 -37 37l-142 293l340 252q24 16 39 16q25 0 25 -18z" />
    <glyph glyph-name="guilsinglright" unicode="&#x203a;" horiz-adv-x="647" 
d="M530 313l-340 -252q-24 -18 -38 -18q-21 0 -21 25q0 13 25 34l247 228l-63 256q-6 24 -6 30q0 25 18 25q24 0 39 -35z" />
    <glyph glyph-name="endash" unicode="&#x2013;" horiz-adv-x="1026" 
d="M950 440l-22 -63l-8 -6h-986l-6 8l23 63l14 7z" />
    <glyph glyph-name="paragraph" unicode="&#xb6;" horiz-adv-x="860" 
d="M506 623l-12 -21q-203 102 -203 322q0 182 151 303q177 143 400 143q107 0 215 -51q111 63 209 63q44 0 74 -22.5t30 -54.5q0 -37 -38 -64t-89 -27q-73 0 -174 64q-27 -45 -37 -72q-2 -4 -57 -172l-285 -891q-67 -206 -145 -301q-152 -178 -381 -178q-96 0 -157.5 71.5
t-61.5 180.5q0 60 35.5 98.5t89.5 38.5q47 0 80.5 -32t33.5 -76q0 -65 -61 -80q-1 0 -64 -4q-53 -3 -53 -47q0 -39 37 -74t76 -35q133 0 237 219q46 95 109 293l194 602q65 205 129 291q64 88 236 190q-87 43 -178 43q-157 0 -260 -131q-135 -171 -135 -389q0 -136 55 -200z
M1079 1300q110 -61 160 -61q39 0 69.5 20t30.5 46q0 51 -79 51q-78 0 -181 -56zM838 883q41 146 100 282q-112 -90 -174 -282l-203 -639q-72 -226 -123 -322q-49 -93 -141 -176q127 56 195 154q64 91 135 313z" />
    <glyph glyph-name="bullet" unicode="&#x2022;" horiz-adv-x="888" 
d="M465 977q113 0 195.5 -84t82.5 -199q0 -118 -83 -201t-199 -83q-117 0 -201 83t-84 199q0 120 83.5 202.5t205.5 82.5z" />
    <glyph glyph-name="quotesinglbase" unicode="&#x201a;" horiz-adv-x="473" 
d="M336 80q0 -147 -279 -287l17 47q164 97 164 168q0 43 -43 43q-14 0 -52 -14l-10 8l25 92q9 41 82 41q96 0 96 -98z" />
    <glyph glyph-name="quotedblbase" unicode="&#x201e;" horiz-adv-x="782" 
d="M647 80q0 -145 -280 -287l12 47q168 98 168 168q0 43 -47 43q-12 0 -51 -14l-7 8l25 92q15 41 82 41q98 0 98 -98zM336 80q0 -147 -279 -287l17 47q164 97 164 168q0 43 -43 43q-14 0 -52 -14l-10 8l25 92q9 41 82 41q96 0 96 -98z" />
    <glyph glyph-name="quotedblright" unicode="&#x201d;" horiz-adv-x="782" 
d="M811 1343q0 -148 -281 -286l13 47q168 94 168 174q0 39 -47 39q-11 0 -52 -14l-8 8l25 88q15 49 82 49q44 0 72 -30t28 -75zM500 1343q0 -149 -279 -286l12 47q168 94 168 174q0 39 -43 39q-13 0 -51 -14l-10 8l25 88q15 49 81 49q97 0 97 -105z" />
    <glyph glyph-name="guillemotright" unicode="&#xbb;" horiz-adv-x="952" 
d="M834 313l-340 -252q-20 -18 -35 -18q-25 0 -25 25q0 11 27 34l250 228l-64 256q-6 15 -6 30q0 25 16 25q20 0 41 -35zM530 313l-340 -252q-24 -18 -38 -18q-21 0 -21 25q0 13 25 34l247 228l-63 256q-6 24 -6 30q0 25 18 25q24 0 39 -35z" />
    <glyph glyph-name="ellipsis" unicode="&#x2026;" horiz-adv-x="2048" 
d="M1739 33q0 -39 -68 -39q-94 0 -94 33q0 110 31 110q4 0 100 -22q31 0 31 -82zM1057 33q0 -39 -72 -39q-92 0 -92 33q0 110 29 110q8 0 104 -22q31 0 31 -82zM373 33q0 -39 -66 -39q-94 0 -94 33q0 110 31 110q21 -2 98 -22q31 0 31 -82z" />
    <glyph glyph-name="perthousand" unicode="&#x2030;" horiz-adv-x="1914" 
d="M1851 459q0 -139 -63 -269q-106 -213 -264 -213q-94 0 -158 76q-59 71 -59 168q0 197 112 350q93 129 228 129q100 0 155 -73q49 -64 49 -168zM1243 459q0 -139 -63 -269q-106 -213 -265 -213q-93 0 -157 76q-60 72 -60 168q0 195 113 350q91 129 227 129q101 0 156 -73
q49 -64 49 -168zM1114 1413l-907 -1556h-76l-6 8q355 504 719 1173q-123 -123 -215 -123q-15 0 -54 11q-89 -238 -266 -238q-100 0 -164 76q-61 70 -61 170q0 192 113 350q89 129 227 129q96 0 156.5 -71.5t60.5 -174.5q0 -83 -41 -186q21 -12 41 -12q82 0 188 118
q88 94 140 187l82 143l12 6h47zM1798 489q0 64 -29 111q-33 49 -98 49q-92 0 -160 -108q-38 -62 -71 -176q-33 -106 -33 -183q0 -168 127 -168q113 0 184 164q80 179 80 311zM575 1237q-2 56 -34.5 92.5t-85.5 36.5q-89 0 -160 -111q-107 -166 -107 -366q0 -160 125 -160
q141 0 211 242q-18 30 -18 73q0 76 69 193zM1190 489q0 64 -29 111q-33 49 -98 49q-92 0 -160 -108q-37 -60 -72 -176q-32 -108 -32 -183q0 -168 127 -168q113 0 184 164q80 183 80 311z" />
    <glyph glyph-name="questiondown" unicode="&#xbf;" horiz-adv-x="933" 
d="M817 1325q0 -104 -29 -104q-3 1 -36.5 5.5t-65.5 10.5q-31 9 -31 82q0 47 68 47q94 0 94 -41zM840 379q-28 -162 -105 -266q-94 -125 -241 -125q-110 0 -182 74t-72 186q0 128 96 291q16 27 229 331q109 155 146 275l8 4l24 -8v-13q-20 -73 -151 -335
q-203 -408 -203 -568q0 -186 146 -186q187 0 270 344l6 8l23 -2z" />
    <glyph glyph-name="grave" unicode="`" horiz-adv-x="1026" 
d="M711 780h-56l-149 172q-29 35 -29 58q0 49 53 49q33 0 62 -55z" />
    <glyph glyph-name="acute" unicode="&#xb4;" horiz-adv-x="1026" 
d="M874 1008q0 -32 -53 -64l-280 -164h-56l279 246q34 33 63 33q47 0 47 -51z" />
    <glyph glyph-name="circumflex" unicode="&#x2c6;" horiz-adv-x="1026" 
d="M877 780h-52l-163 183l-297 -183h-64l315 271h101z" />
    <glyph glyph-name="tilde" unicode="&#x2dc;" horiz-adv-x="1026" 
d="M932 1010q-47 -183 -170 -183q-17 0 -55 11l-142 39q-40 10 -61 10q-76 0 -94 -80h-50q53 176 170 176q46 0 70 -8l145 -41q23 -6 48 -6q75 0 94 82h45z" />
    <glyph glyph-name="dieresis" unicode="&#xa8;" horiz-adv-x="1026" 
d="M889 864q0 -45 -72 -45q-94 0 -94 39q0 111 29 111q17 0 106 -19q31 -6 31 -86zM565 864q0 -45 -76 -45q-94 0 -94 39q0 111 29 111q14 0 106 -19q35 -6 35 -86z" />
    <glyph glyph-name="cedilla" unicode="&#xb8;" horiz-adv-x="1026" 
d="M524 -250q0 -143 -188 -143q-155 0 -262 82l14 35q124 -62 213 -62q117 0 117 92q0 84 -117 84q-40 0 -76 -8l60 170h51l-33 -106h27q12 2 24 2q170 0 170 -146z" />
    <glyph glyph-name="emdash" unicode="&#x2014;" horiz-adv-x="2048" 
d="M2118 449l-21 -78h-2048l25 78h2044z" />
    <glyph glyph-name="ae" unicode="&#xe6;" horiz-adv-x="1144" 
d="M1325 535q0 -59 -88 -181q-272 -377 -555 -377q-115 0 -177.5 70t-62.5 191v20q-159 -270 -286 -270q-84 0 -129 65q-37 58 -37 148q0 196 200 381q142 129 302 129q112 0 176 -76q94 76 196 76q70 0 119 -38t49 -102q0 -123 -172 -237q-122 -78 -280 -127
q0 -174 155 -174q156 0 340 196q126 132 244 330q6 -9 6 -24zM909 582q0 82 -59 82q-105 0 -188 -160q-62 -124 -82 -250q129 30 221 113q108 96 108 215zM575 629q-41 35 -90 35q-95 0 -213 -164q-153 -219 -153 -357q0 -92 63 -92q96 0 236 248q89 161 157 330z" />
    <glyph glyph-name="oslash" unicode="&#xf8;" horiz-adv-x="858" 
d="M1044 547q0 -45 -88 -162q-108 -149 -188 -229q-81 -80 -137 -80q-45 0 -78 37q-137 -138 -299 -138q-38 0 -84 21l-125 -184l-12 -5l-27 19v14l115 174q-109 74 -109 219q0 168 144 322q144 156 309 156q58 0 106 -29l105 164h16l25 -15l6 -14l-111 -162q86 -76 86 -206
q0 -110 -80 -252q11 -41 52 -41q47 0 135 106q76 89 233 309q6 -30 6 -24zM541 637q-39 31 -82 31q-76 0 -154 -90q-54 -64 -94 -158q-49 -116 -49 -223q0 -68 14 -103zM592 524q-2 22 -21 68l-364 -537q31 -37 82 -37q102 0 217 172q-12 35 -12 76q0 127 98 258z" />
    <glyph glyph-name="oe" unicode="&#x153;" horiz-adv-x="1181" 
d="M1376 535q0 -64 -88 -181q-272 -377 -559 -377q-139 0 -203 107q-127 -109 -256 -109q-118 0 -188 70t-70 188q0 171 144 322q144 156 311 156q128 0 197 -117q116 117 247 117q71 0 120.5 -38t49.5 -102q0 -124 -170 -235q-119 -79 -280 -129q0 -174 151 -174
q156 0 342 198q122 127 246 328q6 -18 6 -24zM961 582q0 80 -68 80q-77 0 -152 -105q-12 -16 -45 -76l-2 -4q-45 -95 -63 -223q145 32 241 131q89 88 89 197zM592 524q-28 144 -133 144q-76 0 -154 -90q-54 -64 -94 -158q-49 -116 -49 -223q0 -179 129 -179q94 0 203 154
q-5 45 -5 59q0 154 103 293z" />
    <glyph glyph-name="germandbls" unicode="&#xdf;" horiz-adv-x="761" 
d="M940 555q6 -15 6 -25q0 -49 -115 -188q-112 -137 -231 -209l-176 -84q-66 -57 -119 -57q-74 0 -74 86q0 34 19 60t49 26q45 0 45 -49q0 -18 -23.5 -44.5t-23.5 -31.5q0 -21 20 -21q58 0 123 134q56 113 64 182q8 49 8 117q0 117 -35 233q-6 18 -6 31q0 19 49 53
q75 54 88 70q49 53 49 129q0 33 -53 163q-48 119 -69 156q-83 -94 -148 -346l-90 -375l-90 -317l-238 -768q-3 -27 -22 -64q-16 -2 -82 -16h-6q-15 0 -15 20q0 5 299 1053q234 814 473 946h7q72 -81 120 -348q13 -62 13 -104q0 -67 -43 -133q-7 -13 -103 -58
q-84 -40 -84 -59q0 -17 47 -72q19 -20 41 -98q23 -75 23 -111q0 -62 -45 -153q-46 -95 -111 -172q229 143 459 444z" />
    <glyph glyph-name="Scaron" unicode="&#x160;" horiz-adv-x="2086" 
d="M2454 2136l-316 -270h-100l-160 270h51l164 -182l297 182h64zM2273 1448q0 -292 -401 -596v-76q0 -446 -197 -715q-221 -297 -653 -297q-391 0 -645 263q-252 264 -252 659q0 344 223 592q223 247 567 291q212 284 484 284q247 0 473 -235l-27 -25q-224 228 -440 228
q-134 0 -252 -71.5t-188 -190.5q17 10 39 10q268 0 452 -193t184 -463q0 -44 -4 -120q7 2 58 18q6 0 6 8q126 817 432 817q69 0 109 -61q32 -51 32 -127zM2214 1487q0 115 -82 115q-148 0 -215 -297q-36 -159 -45 -406q342 280 342 588zM1602 932q0 251 -177 422
q-175 172 -428 172h-57q-63 -120 -63 -236q0 -232 170 -381q162 -141 401 -141q76 0 135 18q19 68 19 146zM1700 776q-24 -7 -74 -24q-135 -506 -579 -506q-204 0 -345 127q-137 128 -137 332q0 89 39 159l25 -12q-25 -97 -25 -147q0 -170 119 -295t291 -125q202 0 352 135
q134 119 211 323q-63 -8 -139 -8q-246 0 -422 152q-182 159 -182 403q0 109 53 230q-306 -52 -512 -303q-203 -250 -203 -564q0 -339 219 -590q233 -256 565 -256q360 0 547 322q123 212 197 647z" />
    <glyph glyph-name="trademark" unicode="&#x2122;" horiz-adv-x="1884" 
d="M510 823l-2 2q-27 0 -27 -53q0 -44 42 -74t104 -30q98 0 180 62.5t186 217.5q120 184 248 262q-2 1 -12 4t-17 5q-144 43 -239 43q-122 0 -225 -88q-105 -87 -105 -189q0 -71 59 -80q17 -3 17 -10q0 -4 -4 -4q-37 0 -61.5 27.5t-24.5 68.5q0 118 137 221q137 107 291 107
q86 0 278 -53q93 34 189 34q162 0 162 -55q0 -31 -59.5 -50.5t-149.5 -19.5q-75 0 -226 35q-69 -51 -127 -200q-52 -134 -98 -195q-48 -60 -125 -98q-126 -60 -254 -60q-79 0 -128.5 33.5t-49.5 87.5q0 76 72 76q53 0 53 -49q0 -53 -55 -53q-43 0 -43 40q0 19 12 31q2 2 2 4
zM1348 1257q188 -47 247 -47q78 0 78 31q0 19 -43.5 32t-105.5 13q-98 0 -176 -29zM1622 688q117 53 276 289q140 206 249.5 293.5t226.5 87.5q85 0 142.5 -51.5t57.5 -126.5q0 -72 -18 -72q-4 0 -4 4q0 1 1.5 4t2.5 6q8 31 8 52q0 66 -54.5 110.5t-135.5 44.5
q-110 0 -215.5 -83.5t-247.5 -280.5q-112 -153 -152 -193q-48 -51 -121 -86q-36 -18 -51 -18q-2 0 -4 2q0 2 6 8q73 73 107 278q26 154 55 230q27 69 94 143q-85 -67 -162 -242q-101 -237 -213 -323q-141 -111 -247 -111q-66 0 -110 34t-44 83q0 76 72 76q51 0 51 -51
q0 -56 -55 -56q-43 0 -43 43q0 12 10 29q2 2 2 4q0 4 -4 4q-21 0 -21 -47q0 -44 41 -75t101 -31q215 0 450 438q93 171 160 225q31 27 41 27q2 0 4 -2q0 -3 -8 -8q-48 -41 -64 -216q-19 -197 -57 -286q-40 -96 -127 -156zM2167 823l-13 -16q-71 -91 -114 -119
q-62 -35 -133 -35q-33 0 -129 11q-27 -7 -56 -7q-32 0 -32 11q0 12 24 12q35 0 66 -8q67 15 106 67q38 46 144 250q107 210 241 295q50 33 62 33q2 0 2 -4l-6 -6q-56 -33 -93 -88q-36 -57 -79 -181q-63 -170 -146 -256t-211 -112q98 -4 103 -4q81 0 138.5 36.5t117.5 126.5
q6 7 8 7t4 -2q0 -7 -4 -11z" />
    <glyph glyph-name="scaron" unicode="&#x161;" horiz-adv-x="737" 
d="M778 1051l-315 -271h-101l-159 271h51l164 -183l297 183h63zM922 553q0 -73 -125 -231q-105 -138 -187 -203q-101 -80 -215 -92q-106 -45 -192 -45q-72 0 -125 20q-76 31 -76 92q0 43 39 68q35 22 78 22q30 0 57 -12v-6q-39 -24 -39 -70q0 -69 107 -69q68 0 116 30
q58 34 58 99q0 47 -33 86q-34 34 -90 77q-107 87 -109 89q-43 43 -43 92q0 98 111 159q94 52 199 52q141 0 141 -95q0 -45 -49 -75q-41 -26 -92 -29l-7 12q39 33 39 76q0 62 -84 62q-48 0 -90 -25q-47 -30 -47 -76q0 -43 47 -88q19 -13 119 -90q107 -82 107 -164
q0 -59 -60 -125q162 22 436 481q9 -5 9 -22z" />
    <glyph glyph-name="Ydieresis" unicode="&#x178;" horiz-adv-x="2056" 
d="M2623 1419q0 -35 -24 -59.5t-59 -24.5q-68 0 -68 78q1 4 4 26t6 42q0 63 -94 63q-190 0 -322 -221q-97 -167 -139 -391l-43 -227q-176 -914 -901 -914q-371 0 -618 272q-238 270 -238 642q0 295 158 512q151 207 432 321q163 277 475 277q192 0 334 -103
q157 -115 157 -299q0 -175 -145 -397l-90 -133q0 5 -3 0t-8 -19t-14 -39q114 42 260 183l25 -17q-117 -147 -309 -217q-37 -110 -37 -156q0 -59 29 -100q33 -47 90 -47q131 0 237 309l72 203q73 208 233 387q187 211 383 211q88 0 146 -37q71 -47 71 -125zM1581 1520
q0 134 -129 204q-111 60 -250 60q-289 0 -438 -230q100 33 227 33q206 0 422 -131l-14 -37q-209 135 -408 135q-117 0 -260 -55q-57 -111 -57 -239q0 -219 141 -363q144 -141 363 -141l18 4q24 4 31 4q21 155 145 338l109 158q100 143 100 260zM1632 512q-76 -76 -151 -76
q-124 0 -191 88q-63 82 -63 207h-49q-235 0 -387 148q-154 150 -154 381q0 96 43 221q-235 -116 -371 -338q-133 -221 -133 -481q0 -323 213 -574q226 -262 543 -262q476 0 700 686zM2241 1868q0 -45 -72 -45q-94 0 -94 39q0 110 28 110q14 0 107 -18q31 -6 31 -86z
M1917 1868q0 -45 -76 -45q-94 0 -94 39q0 110 29 110q12 0 106 -18q35 -6 35 -86z" />
    <glyph glyph-name="brokenbar" unicode="&#xa6;" horiz-adv-x="1026" 
d="M567 674h-108v758h108v-758zM567 -346h-108v754h108v-754z" />
    <glyph glyph-name="copyright" unicode="&#xa9;" horiz-adv-x="1599" 
d="M1190 1337q266 0 446 -184q183 -186 183 -451q0 -308 -228 -532q-223 -225 -530 -225q-270 0 -455 182q-184 181 -184 451q0 310 227 534q231 225 541 225zM1169 1313q-285 0 -503 -221q-217 -217 -217 -510q0 -261 176 -437q179 -176 438 -176q292 0 510 217
q219 221 219 512q0 264 -178 439q-178 176 -445 176zM1372 1044q80 0 128 -40.5t48 -106.5q0 -101 -88 -182q-89 -80 -198 -80q-45 0 -78 21.5t-33 52.5q0 10 6 10q4 -4 4 -6q6 -51 66 -51q74 0 166 98q92 101 92 182q0 84 -88 84q-162 0 -377 -221q-215 -223 -215 -385
q0 -80 48.5 -127t133.5 -47q195 0 389 276q23 29 27 29q6 0 6 -6q0 -33 -109 -148q-161 -170 -319 -170q-126 0 -211 82q-84 86 -84 201q0 117 84.5 230.5t230.5 193.5q199 110 371 110z" />
    <glyph glyph-name="registered" unicode="&#xae;" horiz-adv-x="1599" 
d="M1190 1337q266 0 446 -184q183 -186 183 -451q0 -308 -228 -532q-223 -225 -530 -225q-270 0 -455 182q-184 181 -184 451q0 310 227 534q231 225 541 225zM1169 1313q-285 0 -503 -221q-217 -217 -217 -510q0 -261 176 -437q179 -176 438 -176q292 0 510 217
q219 221 219 512q0 264 -178 439q-178 176 -445 176zM1442 1006q114 -68 114 -170q0 -147 -215 -174q95 -46 95 -130q0 -41 -19 -116q-20 -83 -20 -119q0 -78 61 -78q47 0 88 47q5 8 10 8q5 -3 5 -6q-3 -17 -41 -39q-39 -20 -68 -20q-60 0 -103.5 50t-43.5 118q0 39 28 131
q23 72 23 98q0 30 -25 51q-13 -1 -28.5 -2t-24 -1.5t-12.5 -0.5q-47 0 -47 13q0 10 34 10q42 0 78 -12q133 45 133 196q0 76 -49 125q-131 -113 -223 -362q-89 -250 -217 -328q-104 -64 -209 -64q-75 0 -128.5 43t-53.5 103q0 41 24.5 66.5t63.5 25.5q63 0 63 -59
q0 -27 -20 -47.5t-49 -20.5q-56 0 -56 53q0 18 13 35q4 4 4 6q0 4 -4 4q-8 0 -18.5 -22t-10.5 -41q0 -54 50.5 -93.5t119.5 -39.5q74 0 127 71q52 70 164 318q89 199 348 362q-86 68 -207 68q-164 0 -309 -121q-146 -122 -146 -256q0 -113 123 -113q44 0 88 17q16 6 19 6
q6 0 6 -4q0 -8 -41 -18.5t-76 -10.5q-158 0 -158 139q0 150 142 265q140 112 332 112q130 0 254 -65q95 59 161 59q15 0 15 -6q0 -4 -23 -4q-61 3 -141 -57z" />
    <glyph glyph-name="plusminus" unicode="&#xb1;" horiz-adv-x="1705" 
d="M1454 723h-551v-346h-98v346h-551v98h551v346h98v-346h551v-98zM1454 51h-1200v99h1200v-99z" />
    <glyph glyph-name="Agrave" unicode="&#xc0;" horiz-adv-x="2514" 
d="M1755 1907h-55l-150 172q-28 34 -28 57q0 49 53 49q34 0 61 -55zM2497 -141q0 -203 -211 -203q-208 0 -310 215q-78 167 -78 393q0 143 31 307q-118 -51 -241 -79q-101 -326 -252 -488q-187 -199 -496 -199q-345 0 -575 271q-215 257 -215 610t229 612q239 273 586 273
h67q182 256 518 256q288 0 459 -189q164 -181 164 -473q0 -204 -45 -549q119 -27 172 -110l-27 -14q-62 77 -145 94q-43 -203 -43 -471q0 -426 235 -426q150 0 150 170h27zM2021 1180v49q-105 -60 -206 -324q-31 -75 -119 -375q19 0 96 27q85 31 137 43q1 7 13 53.5t12 57.5
l31 202q36 243 36 267zM2021 1268q-21 225 -155 368q-141 148 -365 148q-256 0 -430 -213q260 -40 410 -217q151 -177 151 -441v-69q143 171 189 346h32q-80 -263 -229 -385q-45 -202 -113 -305q-2 0 0.5 0.5t11.5 2t22.5 3.5t34 4.5t44.5 5.5l123 322q82 216 98 245
q67 131 176 185zM1589 938q0 245 -147 408q-149 163 -391 196q-101 -160 -101 -321q0 -189 113 -326q121 -145 305 -145q107 0 213 69q8 44 8 119zM1608 477q-102 -18 -125 -18q-175 -213 -432 -213q-201 0 -336 135q-133 136 -133 338q0 35 28 149l27 -6q-21 -65 -21 -151
q0 -173 117 -299q120 -123 293 -123q198 0 379 178q-86 30 -127 80l27 24q49 -62 120 -71q96 106 140 268q-104 -49 -197 -49q-199 0 -328 153q-120 147 -120 349q0 180 88 321q-353 -9 -586 -278q-225 -258 -225 -615q0 -318 206 -559q216 -246 531 -246q271 0 442 191
q128 143 232 442z" />
    <glyph glyph-name="Aacute" unicode="&#xc1;" horiz-adv-x="2514" 
d="M1448 2114q0 -32 -53 -64l-281 -164h-55l278 246q37 33 64 33q47 0 47 -51zM2497 -141q0 -203 -211 -203q-208 0 -310 215q-78 167 -78 393q0 143 31 307q-118 -51 -241 -79q-101 -326 -252 -488q-187 -199 -496 -199q-345 0 -575 271q-215 257 -215 610t229 612
q239 273 586 273h67q182 256 518 256q288 0 459 -189q164 -181 164 -473q0 -204 -45 -549q119 -27 172 -110l-27 -14q-62 77 -145 94q-43 -203 -43 -471q0 -426 235 -426q150 0 150 170h27zM2021 1180v49q-105 -60 -206 -324q-31 -75 -119 -375q19 0 96 27q85 31 137 43
q1 7 13 53.5t12 57.5l31 202q36 243 36 267zM2021 1268q-21 225 -155 368q-141 148 -365 148q-256 0 -430 -213q260 -40 410 -217q151 -177 151 -441v-69q143 171 189 346h32q-80 -263 -229 -385q-45 -202 -113 -305q-2 0 0.5 0.5t11.5 2t22.5 3.5t34 4.5t44.5 5.5l123 322
q82 216 98 245q67 131 176 185zM1589 938q0 245 -147 408q-149 163 -391 196q-101 -160 -101 -321q0 -189 113 -326q121 -145 305 -145q107 0 213 69q8 44 8 119zM1608 477q-102 -18 -125 -18q-175 -213 -432 -213q-201 0 -336 135q-133 136 -133 338q0 35 28 149l27 -6
q-21 -65 -21 -151q0 -173 117 -299q120 -123 293 -123q198 0 379 178q-86 30 -127 80l27 24q49 -62 120 -71q96 106 140 268q-104 -49 -197 -49q-199 0 -328 153q-120 147 -120 349q0 180 88 321q-353 -9 -586 -278q-225 -258 -225 -615q0 -318 206 -559q216 -246 531 -246
q271 0 442 191q128 143 232 442z" />
    <glyph glyph-name="Acircumflex" unicode="&#xc2;" horiz-adv-x="2514" 
d="M1819 1845h-52l-163 183l-297 -183h-64l316 271h100zM2497 -141q0 -203 -211 -203q-208 0 -310 215q-78 167 -78 393q0 143 31 307q-118 -51 -241 -79q-101 -326 -252 -488q-187 -199 -496 -199q-345 0 -575 271q-215 257 -215 610t229 612q239 273 586 273h67
q182 256 518 256q288 0 459 -189q164 -181 164 -473q0 -204 -45 -549q119 -27 172 -110l-27 -14q-62 77 -145 94q-43 -203 -43 -471q0 -426 235 -426q150 0 150 170h27zM2021 1180v49q-105 -60 -206 -324q-31 -75 -119 -375q19 0 96 27q85 31 137 43q1 7 13 53.5t12 57.5
l31 202q36 243 36 267zM2021 1268q-21 225 -155 368q-141 148 -365 148q-256 0 -430 -213q260 -40 410 -217q151 -177 151 -441v-69q143 171 189 346h32q-80 -263 -229 -385q-45 -202 -113 -305q-2 0 0.5 0.5t11.5 2t22.5 3.5t34 4.5t44.5 5.5l123 322q82 216 98 245
q67 131 176 185zM1589 938q0 245 -147 408q-149 163 -391 196q-101 -160 -101 -321q0 -189 113 -326q121 -145 305 -145q107 0 213 69q8 44 8 119zM1608 477q-102 -18 -125 -18q-175 -213 -432 -213q-201 0 -336 135q-133 136 -133 338q0 35 28 149l27 -6q-21 -65 -21 -151
q0 -173 117 -299q120 -123 293 -123q198 0 379 178q-86 30 -127 80l27 24q49 -62 120 -71q96 106 140 268q-104 -49 -197 -49q-199 0 -328 153q-120 147 -120 349q0 180 88 321q-353 -9 -586 -278q-225 -258 -225 -615q0 -318 206 -559q216 -246 531 -246q271 0 442 191
q128 143 232 442z" />
    <glyph glyph-name="Atilde" unicode="&#xc3;" horiz-adv-x="2514" 
d="M1812 2095q-45 -182 -170 -182q-13 0 -55 10l-141 39q-42 10 -62 10q-75 0 -94 -80h-49q53 176 170 176q45 0 70 -8l145 -41q21 -6 47 -6q76 0 94 82h45zM2497 -141q0 -203 -211 -203q-208 0 -310 215q-78 167 -78 393q0 143 31 307q-118 -51 -241 -79
q-101 -326 -252 -488q-187 -199 -496 -199q-345 0 -575 271q-215 257 -215 610t229 612q239 273 586 273h67q182 256 518 256q288 0 459 -189q164 -181 164 -473q0 -204 -45 -549q119 -27 172 -110l-27 -14q-62 77 -145 94q-43 -203 -43 -471q0 -426 235 -426q150 0 150 170
h27zM2021 1180v49q-105 -60 -206 -324q-31 -75 -119 -375q19 0 96 27q85 31 137 43q1 7 13 53.5t12 57.5l31 202q36 243 36 267zM2021 1268q-21 225 -155 368q-141 148 -365 148q-256 0 -430 -213q260 -40 410 -217q151 -177 151 -441v-69q143 171 189 346h32
q-80 -263 -229 -385q-45 -202 -113 -305q-2 0 0.5 0.5t11.5 2t22.5 3.5t34 4.5t44.5 5.5l123 322q82 216 98 245q67 131 176 185zM1589 938q0 245 -147 408q-149 163 -391 196q-101 -160 -101 -321q0 -189 113 -326q121 -145 305 -145q107 0 213 69q8 44 8 119zM1608 477
q-102 -18 -125 -18q-175 -213 -432 -213q-201 0 -336 135q-133 136 -133 338q0 35 28 149l27 -6q-21 -65 -21 -151q0 -173 117 -299q120 -123 293 -123q198 0 379 178q-86 30 -127 80l27 24q49 -62 120 -71q96 106 140 268q-104 -49 -197 -49q-199 0 -328 153
q-120 147 -120 349q0 180 88 321q-353 -9 -586 -278q-225 -258 -225 -615q0 -318 206 -559q216 -246 531 -246q271 0 442 191q128 143 232 442z" />
    <glyph glyph-name="Adieresis" unicode="&#xc4;" horiz-adv-x="2514" 
d="M1749 1950q0 -45 -72 -45q-94 0 -94 39q0 110 29 110q14 0 106 -18q31 -6 31 -86zM1425 1950q0 -45 -75 -45q-95 0 -95 39q0 110 29 110q11 0 107 -18q34 -6 34 -86zM2497 -141q0 -203 -211 -203q-208 0 -310 215q-78 167 -78 393q0 143 31 307q-118 -51 -241 -79
q-101 -326 -252 -488q-187 -199 -496 -199q-345 0 -575 271q-215 257 -215 610t229 612q239 273 586 273h67q182 256 518 256q288 0 459 -189q164 -181 164 -473q0 -204 -45 -549q119 -27 172 -110l-27 -14q-62 77 -145 94q-43 -203 -43 -471q0 -426 235 -426q150 0 150 170
h27zM2021 1180v49q-105 -60 -206 -324q-31 -75 -119 -375q19 0 96 27q85 31 137 43q1 7 13 53.5t12 57.5l31 202q36 243 36 267zM2021 1268q-21 225 -155 368q-141 148 -365 148q-256 0 -430 -213q260 -40 410 -217q151 -177 151 -441v-69q143 171 189 346h32
q-80 -263 -229 -385q-45 -202 -113 -305q-2 0 0.5 0.5t11.5 2t22.5 3.5t34 4.5t44.5 5.5l123 322q82 216 98 245q67 131 176 185zM1589 938q0 245 -147 408q-149 163 -391 196q-101 -160 -101 -321q0 -189 113 -326q121 -145 305 -145q107 0 213 69q8 44 8 119zM1608 477
q-102 -18 -125 -18q-175 -213 -432 -213q-201 0 -336 135q-133 136 -133 338q0 35 28 149l27 -6q-21 -65 -21 -151q0 -173 117 -299q120 -123 293 -123q198 0 379 178q-86 30 -127 80l27 24q49 -62 120 -71q96 106 140 268q-104 -49 -197 -49q-199 0 -328 153
q-120 147 -120 349q0 180 88 321q-353 -9 -586 -278q-225 -258 -225 -615q0 -318 206 -559q216 -246 531 -246q271 0 442 191q128 143 232 442z" />
    <glyph glyph-name="Aring" unicode="&#xc5;" horiz-adv-x="2514" 
d="M2497 -141q0 -203 -211 -203q-208 0 -310 215q-78 167 -78 393q0 143 31 307q-118 -51 -241 -79q-101 -326 -252 -488q-187 -199 -496 -199q-345 0 -575 271q-215 257 -215 610t229 612q239 273 586 273h67q182 256 518 256q288 0 459 -189q164 -181 164 -473
q0 -204 -45 -549q119 -27 172 -110l-27 -14q-62 77 -145 94q-43 -203 -43 -471q0 -426 235 -426q150 0 150 170h27zM2021 1180v49q-105 -60 -206 -324q-31 -75 -119 -375q19 0 96 27q85 31 137 43q1 7 13 53.5t12 57.5l31 202q36 243 36 267zM2021 1268q-21 225 -155 368
q-141 148 -365 148q-256 0 -430 -213q260 -40 410 -217q151 -177 151 -441v-69q143 171 189 346h32q-80 -263 -229 -385q-45 -202 -113 -305q-2 0 0.5 0.5t11.5 2t22.5 3.5t34 4.5t44.5 5.5l123 322q82 216 98 245q67 131 176 185zM1589 938q0 245 -147 408
q-149 163 -391 196q-101 -160 -101 -321q0 -189 113 -326q121 -145 305 -145q107 0 213 69q8 44 8 119zM1608 477q-102 -18 -125 -18q-175 -213 -432 -213q-201 0 -336 135q-133 136 -133 338q0 35 28 149l27 -6q-21 -65 -21 -151q0 -173 117 -299q120 -123 293 -123
q198 0 379 178q-86 30 -127 80l27 24q49 -62 120 -71q96 106 140 268q-104 -49 -197 -49q-199 0 -328 153q-120 147 -120 349q0 180 88 321q-353 -9 -586 -278q-225 -258 -225 -615q0 -318 206 -559q216 -246 531 -246q271 0 442 191q128 143 232 442z" />
    <glyph glyph-name="Ccedilla" unicode="&#xc7;" horiz-adv-x="2009" 
d="M1997 1413q0 -287 -187 -582q45 -73 58 -108q18 -53 18 -141q0 -216 -125 -445q-122 -228 -301 -342q101 -178 273 -299l-25 -35q-114 86 -164 142q-60 68 -119 178q-36 -12 -75 -12q-15 0 -47 4l-29 -92h26q13 2 25 2q170 0 170 -146q0 -141 -186 -141q-157 0 -265 82
l15 33q130 -62 213 -62q119 0 119 92q0 84 -119 84q-40 0 -76 -8l59 170q-133 53 -208 207q-66 135 -72 291q-35 -6 -76 -6q-315 0 -514 219q-197 212 -197 528q0 344 242 580q244 239 586 239q339 0 547 -231q130 121 247 121q102 0 152 -117q35 -84 35 -205zM1942 1499
q0 71 -27 135q-37 80 -100 80q-97 0 -209 -160q34 -34 102 -176l-37 -18q-23 54 -41 90q-15 28 -53 80q-297 -441 -397 -1106l-9 -53q112 26 189 75q94 455 321 455q52 0 76 -31q185 379 185 629zM1741 844q-27 20 -60 20q-187 0 -282 -385q234 157 342 365zM1532 1583
q-166 221 -488 221q-326 0 -567 -243q-239 -242 -239 -570q0 -277 188 -477q189 -201 463 -201h86q33 714 557 1270zM1804 668q0 78 -22 133q-161 -217 -387 -377q-11 -121 -11 -209q0 -214 66 -391q166 116 266 379q88 230 88 465zM1423 -180q-51 123 -69 207
q-17 85 -17 217q0 18 6.5 80t6.5 79l-197 -90q-4 -94 -4 -161q0 -351 199 -351q37 0 75 19z" />
    <glyph glyph-name="Egrave" unicode="&#xc8;" horiz-adv-x="2664" 
d="M2247 1866h-56l-149 172q-29 34 -29 57q0 49 53 49q34 0 62 -55zM2810 1712q0 -138 -113 -229q-103 -84 -246 -84q-87 0 -247 43l-47 6q-113 -110 -172 -315q-34 -112 -76 -359q90 27 159 27q60 0 123 -31q78 -38 78 -90q0 -39 -33 -39q-17 0 -32 45q-25 76 -136 76
q-64 0 -170 -31q-45 -239 -88 -364q-71 -203 -186 -324q198 -125 512 -125q126 0 236 70q125 79 125 196q0 56 -41 56l-48 -21q-24 -12 -53 -12q-40 0 -67 34.5t-27 77.5q0 48 32.5 78.5t80.5 30.5q76 0 118 -76q33 -59 33 -145q0 -187 -127 -320t-313 -133q-137 0 -281 70
q-101 50 -248 151q-274 -200 -575 -200q-360 0 -608 284q-234 275 -234 641q0 376 236 639q243 275 614 275q175 190 512 190q136 0 385 -78l164 -51q336 -104 492 -104q110 0 161 24q74 34 74 131q0 14 -10 46l33 6q10 -38 10 -66zM2118 1473q-102 27 -209 71l-158 70
q-275 121 -397 121q-186 0 -316 -121q278 -9 453 -199q172 -187 172 -471q0 -62 -25 -199q8 0 31.5 -4t30.5 -4h22q17 60 17 68l49 139q71 197 125 291q69 117 205 238zM1624 963q0 251 -160 432q-168 188 -413 188h-56q-139 -180 -139 -381q0 -183 96 -317
q108 -148 283 -148q147 0 233 103v61q0 68 45 68q31 0 31 -54q0 -45 -31 -75q23 -48 76 -78q35 113 35 201zM1712 700h-29q-26 0 -59 11q-58 -187 -180 -295q-117 -105 -311 -156q5 -1 18.5 -3t22.5 -3l18 -6q31 -19 113 -64l96 -51q23 0 59 -24q79 109 240 544q0 20 12 47z
M1581 731q-41 12 -94 74q-105 -105 -252 -105q-193 0 -313 158q-109 145 -109 344q0 204 137 381l-43 -12q-314 -47 -518 -314q-199 -254 -199 -577q0 -337 216 -592q224 -268 557 -268q267 0 462 243q-137 95 -208 130q-119 55 -236 55h-49q-16 -8 -51 -8t-35 32
q0 35 43 35q25 0 49 -6q9 0 38.5 -5t37.5 -5q191 0 350 131q150 123 217 309z" />
    <glyph glyph-name="Eacute" unicode="&#xc9;" horiz-adv-x="2664" 
d="M2247 2052q0 -32 -54 -63l-280 -164h-55l278 246q36 32 64 32q47 0 47 -51zM2810 1712q0 -138 -113 -229q-103 -84 -246 -84q-87 0 -247 43l-47 6q-113 -110 -172 -315q-34 -112 -76 -359q90 27 159 27q60 0 123 -31q78 -38 78 -90q0 -39 -33 -39q-17 0 -32 45
q-25 76 -136 76q-64 0 -170 -31q-45 -239 -88 -364q-71 -203 -186 -324q198 -125 512 -125q126 0 236 70q125 79 125 196q0 56 -41 56l-48 -21q-24 -12 -53 -12q-40 0 -67 34.5t-27 77.5q0 48 32.5 78.5t80.5 30.5q76 0 118 -76q33 -59 33 -145q0 -187 -127 -320t-313 -133
q-137 0 -281 70q-101 50 -248 151q-274 -200 -575 -200q-360 0 -608 284q-234 275 -234 641q0 376 236 639q243 275 614 275q175 190 512 190q136 0 385 -78l164 -51q336 -104 492 -104q110 0 161 24q74 34 74 131q0 14 -10 46l33 6q10 -38 10 -66zM2118 1473
q-102 27 -209 71l-158 70q-275 121 -397 121q-186 0 -316 -121q278 -9 453 -199q172 -187 172 -471q0 -62 -25 -199q8 0 31.5 -4t30.5 -4h22q17 60 17 68l49 139q71 197 125 291q69 117 205 238zM1624 963q0 251 -160 432q-168 188 -413 188h-56q-139 -180 -139 -381
q0 -183 96 -317q108 -148 283 -148q147 0 233 103v61q0 68 45 68q31 0 31 -54q0 -45 -31 -75q23 -48 76 -78q35 113 35 201zM1712 700h-29q-26 0 -59 11q-58 -187 -180 -295q-117 -105 -311 -156q5 -1 18.5 -3t22.5 -3l18 -6q31 -19 113 -64l96 -51q23 0 59 -24
q79 109 240 544q0 20 12 47zM1581 731q-41 12 -94 74q-105 -105 -252 -105q-193 0 -313 158q-109 145 -109 344q0 204 137 381l-43 -12q-314 -47 -518 -314q-199 -254 -199 -577q0 -337 216 -592q224 -268 557 -268q267 0 462 243q-137 95 -208 130q-119 55 -236 55h-49
q-16 -8 -51 -8t-35 32q0 35 43 35q25 0 49 -6q9 0 38.5 -5t37.5 -5q191 0 350 131q150 123 217 309z" />
    <glyph glyph-name="Ecircumflex" unicode="&#xca;" horiz-adv-x="2664" 
d="M2331 1866h-52l-163 182l-297 -182h-64l316 270h100zM2810 1712q0 -138 -113 -229q-103 -84 -246 -84q-87 0 -247 43l-47 6q-113 -110 -172 -315q-34 -112 -76 -359q90 27 159 27q60 0 123 -31q78 -38 78 -90q0 -39 -33 -39q-17 0 -32 45q-25 76 -136 76q-64 0 -170 -31
q-45 -239 -88 -364q-71 -203 -186 -324q198 -125 512 -125q126 0 236 70q125 79 125 196q0 56 -41 56l-48 -21q-24 -12 -53 -12q-40 0 -67 34.5t-27 77.5q0 48 32.5 78.5t80.5 30.5q76 0 118 -76q33 -59 33 -145q0 -187 -127 -320t-313 -133q-137 0 -281 70
q-101 50 -248 151q-274 -200 -575 -200q-360 0 -608 284q-234 275 -234 641q0 376 236 639q243 275 614 275q175 190 512 190q136 0 385 -78l164 -51q336 -104 492 -104q110 0 161 24q74 34 74 131q0 14 -10 46l33 6q10 -38 10 -66zM2118 1473q-102 27 -209 71l-158 70
q-275 121 -397 121q-186 0 -316 -121q278 -9 453 -199q172 -187 172 -471q0 -62 -25 -199q8 0 31.5 -4t30.5 -4h22q17 60 17 68l49 139q71 197 125 291q69 117 205 238zM1624 963q0 251 -160 432q-168 188 -413 188h-56q-139 -180 -139 -381q0 -183 96 -317
q108 -148 283 -148q147 0 233 103v61q0 68 45 68q31 0 31 -54q0 -45 -31 -75q23 -48 76 -78q35 113 35 201zM1712 700h-29q-26 0 -59 11q-58 -187 -180 -295q-117 -105 -311 -156q5 -1 18.5 -3t22.5 -3l18 -6q31 -19 113 -64l96 -51q23 0 59 -24q79 109 240 544q0 20 12 47z
M1581 731q-41 12 -94 74q-105 -105 -252 -105q-193 0 -313 158q-109 145 -109 344q0 204 137 381l-43 -12q-314 -47 -518 -314q-199 -254 -199 -577q0 -337 216 -592q224 -268 557 -268q267 0 462 243q-137 95 -208 130q-119 55 -236 55h-49q-16 -8 -51 -8t-35 32
q0 35 43 35q25 0 49 -6q9 0 38.5 -5t37.5 -5q191 0 350 131q150 123 217 309z" />
    <glyph glyph-name="Edieresis" unicode="&#xcb;" horiz-adv-x="2664" 
d="M2363 1909q0 -45 -71 -45q-94 0 -94 39q0 110 28 110q14 0 107 -18q30 -6 30 -86zM2040 1909q0 -45 -76 -45q-94 0 -94 39q0 110 28 110q12 0 107 -18q35 -6 35 -86zM2810 1712q0 -138 -113 -229q-103 -84 -246 -84q-87 0 -247 43l-47 6q-113 -110 -172 -315
q-34 -112 -76 -359q90 27 159 27q60 0 123 -31q78 -38 78 -90q0 -39 -33 -39q-17 0 -32 45q-25 76 -136 76q-64 0 -170 -31q-45 -239 -88 -364q-71 -203 -186 -324q198 -125 512 -125q126 0 236 70q125 79 125 196q0 56 -41 56l-48 -21q-24 -12 -53 -12q-40 0 -67 34.5
t-27 77.5q0 48 32.5 78.5t80.5 30.5q76 0 118 -76q33 -59 33 -145q0 -187 -127 -320t-313 -133q-137 0 -281 70q-101 50 -248 151q-274 -200 -575 -200q-360 0 -608 284q-234 275 -234 641q0 376 236 639q243 275 614 275q175 190 512 190q136 0 385 -78l164 -51
q336 -104 492 -104q110 0 161 24q74 34 74 131q0 14 -10 46l33 6q10 -38 10 -66zM2118 1473q-102 27 -209 71l-158 70q-275 121 -397 121q-186 0 -316 -121q278 -9 453 -199q172 -187 172 -471q0 -62 -25 -199q8 0 31.5 -4t30.5 -4h22q17 60 17 68l49 139q71 197 125 291
q69 117 205 238zM1624 963q0 251 -160 432q-168 188 -413 188h-56q-139 -180 -139 -381q0 -183 96 -317q108 -148 283 -148q147 0 233 103v61q0 68 45 68q31 0 31 -54q0 -45 -31 -75q23 -48 76 -78q35 113 35 201zM1712 700h-29q-26 0 -59 11q-58 -187 -180 -295
q-117 -105 -311 -156q5 -1 18.5 -3t22.5 -3l18 -6q31 -19 113 -64l96 -51q23 0 59 -24q79 109 240 544q0 20 12 47zM1581 731q-41 12 -94 74q-105 -105 -252 -105q-193 0 -313 158q-109 145 -109 344q0 204 137 381l-43 -12q-314 -47 -518 -314q-199 -254 -199 -577
q0 -337 216 -592q224 -268 557 -268q267 0 462 243q-137 95 -208 130q-119 55 -236 55h-49q-16 -8 -51 -8t-35 32q0 35 43 35q25 0 49 -6q9 0 38.5 -5t37.5 -5q191 0 350 131q150 123 217 309z" />
    <glyph glyph-name="Igrave" unicode="&#xcc;" horiz-adv-x="2062" 
d="M1755 1804h-55l-150 172q-28 36 -28 58q0 49 53 49q33 0 61 -55zM2425 1790q-236 -76 -383 -449q-87 -222 -158 -598q139 53 238 238l22 -16q-99 -199 -266 -260q-50 -225 -80 -318q-59 -178 -147 -291q-121 -153 -297.5 -236t-378.5 -83q-374 0 -621 268
q-239 265 -239 641q0 360 250 625q250 266 610 266q284 0 481 -191q298 387 969 437v-33zM2306 1772q-274 -45 -444 -162q-188 -129 -306 -361q84 -159 84 -346q0 -56 -26 -160q34 -14 86 -14l18 51q152 420 269 625q130 226 319 367zM1599 938q0 141 -67 279
q-59 -135 -59 -236q0 -147 102 -211q24 117 24 168zM1683 686q-56 14 -75 25q-163 -463 -574 -463q-193 0 -340 133q-141 132 -141 330q0 69 35 159l24 -8q-18 -67 -18 -151q0 -177 121 -301q124 -121 301 -121q181 0 340 139q144 126 209 309q-211 150 -211 379
q0 107 76 244q-187 184 -439 184q-339 0 -588 -270q-245 -268 -245 -612q0 -330 219 -582q229 -260 555 -260q320 0 514 268q134 190 229 565z" />
    <glyph glyph-name="Iacute" unicode="&#xcd;" horiz-adv-x="2062" 
d="M1919 2052q0 -33 -53 -63l-281 -164h-55l278 246q36 32 64 32q47 0 47 -51zM2425 1790q-236 -76 -383 -449q-87 -222 -158 -598q139 53 238 238l22 -16q-99 -199 -266 -260q-50 -225 -80 -318q-59 -178 -147 -291q-121 -153 -297.5 -236t-378.5 -83q-374 0 -621 268
q-239 265 -239 641q0 360 250 625q250 266 610 266q284 0 481 -191q298 387 969 437v-33zM2306 1772q-274 -45 -444 -162q-188 -129 -306 -361q84 -159 84 -346q0 -56 -26 -160q34 -14 86 -14l18 51q152 420 269 625q130 226 319 367zM1599 938q0 141 -67 279
q-59 -135 -59 -236q0 -147 102 -211q24 117 24 168zM1683 686q-56 14 -75 25q-163 -463 -574 -463q-193 0 -340 133q-141 132 -141 330q0 69 35 159l24 -8q-18 -67 -18 -151q0 -177 121 -301q124 -121 301 -121q181 0 340 139q144 126 209 309q-211 150 -211 379
q0 107 76 244q-187 184 -439 184q-339 0 -588 -270q-245 -268 -245 -612q0 -330 219 -582q229 -260 555 -260q320 0 514 268q134 190 229 565z" />
    <glyph glyph-name="Icircumflex" unicode="&#xce;" horiz-adv-x="2062" 
d="M1982 1845h-51l-164 183l-297 -183h-63l315 271h101zM2425 1790q-236 -76 -383 -449q-87 -222 -158 -598q139 53 238 238l22 -16q-99 -199 -266 -260q-50 -225 -80 -318q-59 -178 -147 -291q-121 -153 -297.5 -236t-378.5 -83q-374 0 -621 268q-239 265 -239 641
q0 360 250 625q250 266 610 266q284 0 481 -191q298 387 969 437v-33zM2306 1772q-274 -45 -444 -162q-188 -129 -306 -361q84 -159 84 -346q0 -56 -26 -160q34 -14 86 -14l18 51q152 420 269 625q130 226 319 367zM1599 938q0 141 -67 279q-59 -135 -59 -236
q0 -147 102 -211q24 117 24 168zM1683 686q-56 14 -75 25q-163 -463 -574 -463q-193 0 -340 133q-141 132 -141 330q0 69 35 159l24 -8q-18 -67 -18 -151q0 -177 121 -301q124 -121 301 -121q181 0 340 139q144 126 209 309q-211 150 -211 379q0 107 76 244
q-187 184 -439 184q-339 0 -588 -270q-245 -268 -245 -612q0 -330 219 -582q229 -260 555 -260q320 0 514 268q134 190 229 565z" />
    <glyph glyph-name="Idieresis" unicode="&#xcf;" horiz-adv-x="2062" 
d="M1954 1909q0 -45 -72 -45q-94 0 -94 39q0 110 29 110q14 0 106 -18q31 -6 31 -86zM1630 1909q0 -45 -76 -45q-94 0 -94 39q0 110 29 110q11 0 106 -18q35 -6 35 -86zM2425 1790q-236 -76 -383 -449q-87 -222 -158 -598q139 53 238 238l22 -16q-99 -199 -266 -260
q-50 -225 -80 -318q-59 -178 -147 -291q-121 -153 -297.5 -236t-378.5 -83q-374 0 -621 268q-239 265 -239 641q0 360 250 625q250 266 610 266q284 0 481 -191q298 387 969 437v-33zM2306 1772q-274 -45 -444 -162q-188 -129 -306 -361q84 -159 84 -346q0 -56 -26 -160
q34 -14 86 -14l18 51q152 420 269 625q130 226 319 367zM1599 938q0 141 -67 279q-59 -135 -59 -236q0 -147 102 -211q24 117 24 168zM1683 686q-56 14 -75 25q-163 -463 -574 -463q-193 0 -340 133q-141 132 -141 330q0 69 35 159l24 -8q-18 -67 -18 -151q0 -177 121 -301
q124 -121 301 -121q181 0 340 139q144 126 209 309q-211 150 -211 379q0 107 76 244q-187 184 -439 184q-339 0 -588 -270q-245 -268 -245 -612q0 -330 219 -582q229 -260 555 -260q320 0 514 268q134 190 229 565z" />
    <glyph glyph-name="Eth" unicode="&#xd0;" horiz-adv-x="2545" 
d="M2458 1587q-28 8 -70 8q-113 0 -213 -75q227 -254 227 -670q0 -236 -69 -440l-9 -25q64 -74 78 -127l-39 -10q-12 55 -57 94q-228 -565 -543 -565q-83 0 -131.5 54t-48.5 140q0 9 3 37.5t3 36.5q-256 -268 -612 -268q-369 0 -615 282q-235 274 -235 648q0 341 203 579
q196 230 538 301q248 236 600 236q397 0 680 -269q129 76 228 76q47 0 82 -10v-33zM2324 909q0 179 -40 308q-41 126 -146 276q-88 -94 -145 -254q-47 -136 -117 -475l-4 -19h262v-53h-272q-55 -255 -86 -350q155 137 303 137q77 0 172 -43q73 247 73 473zM2122 1526
q-121 130 -291.5 202t-353.5 72q-313 0 -539 -205h8q294 0 472.5 -153t219.5 -441q76 183 76 322q0 63 -18 137l-8 33l26 8q37 -102 37 -184q0 -176 -113 -383q-6 -104 -26 -189h82q98 303 157 424q101 208 271 357zM1589 944q-9 266 -168 436q-161 174 -430 174h-104
q-144 -200 -144 -364q0 -192 136 -324q89 -92 206 -121h226q143 39 278 199zM1589 877q-105 -94 -182 -132h156q20 61 26 132zM2251 395q-121 41 -178 41q-148 0 -250 -102q-89 -71 -137 -162q-60 -108 -60 -201q0 -69 40 -114t106 -45q177 0 311 215q67 101 168 368z
M1677 692h-80q-44 -143 -137 -252q-156 -182 -413 -182q-191 0 -330 121q-146 128 -158 313h-188v53h190q6 47 31 138l39 -6q-24 -67 -27 -132h385q-73 35 -135 99q-147 144 -147 354q0 154 118 338q-292 -83 -475 -322q-180 -234 -180 -540q0 -338 219 -592
q229 -262 563 -262q297 0 488 293q112 179 231 561zM1544 692h-938q12 -160 131 -276q121 -115 279 -115q209 0 379 170q99 101 149 221z" />
    <glyph glyph-name="Ntilde" unicode="&#xd1;" horiz-adv-x="2785" 
d="M2775 2034q-47 -183 -170 -183q-17 0 -55 11l-142 39q-40 10 -61 10q-76 0 -94 -80h-49q51 176 170 176q45 0 69 -8l146 -41q21 -6 47 -6q76 0 94 82h45zM3058 1548q0 -37 -23.5 -61.5t-58.5 -24.5q-45 0 -80 35t-47 35q-122 0 -277 -332q-88 -188 -164 -436
q-6 -21 -69 -240q-39 -124 -88 -196v-49q0 -211 51 -347q73 -208 244 -208q74 0 151 77l37 -18q-81 -100 -221 -100q-249 0 -369 243q-88 180 -88 463q0 116 19 367q16 245 16 342q0 150 -16 219q-100 -117 -172 -328q-29 -85 -95 -358q-38 -170 -61 -228q-37 -131 -76 -194
q-67 -113 -117 -166q-213 -225 -563 -225q-378 0 -620 256q-244 256 -244 633q0 363 250 622q252 258 614 258q25 0 49 -6q188 209 480 209q392 0 616 -360q140 104 320 133l8 -31q-117 -25 -168 -45q-68 -27 -146 -92q84 -133 95 -496l6 -211v-266q64 161 110 317
q268 891 590 891q39 0 73 -24t34 -58zM1606 940q0 250 -152 416q-147 159 -397 200q-142 -181 -142 -372q0 -181 115 -314q121 -139 295 -139q139 0 264 94q17 56 17 115zM2066 1362l-10 16q-59 183 -203 281q-139 92 -333 92q-232 0 -437 -170q249 -38 406 -215
q158 -178 158 -426v-66q107 134 141 285l35 -6q-34 -114 -72 -186q-31 -64 -113 -160q-51 -244 -194 -387q-157 -160 -393 -160q-210 0 -346 127q-134 126 -134 336q0 95 27 160l31 -9q-25 -63 -25 -143q0 -179 117 -305q117 -123 295 -123q192 0 352 139q151 130 209 322
q-129 -66 -242 -66q-196 0 -327 146q-125 137 -125 340q0 143 108 336l17 28q-352 0 -594 -270q-238 -262 -238 -614q0 -347 230 -580q230 -234 577 -234q252 0 436 146q103 80 158 199q70 144 195 536q80 258 112 334q76 184 182 297z" />
    <glyph glyph-name="Ograve" unicode="&#xd2;" horiz-adv-x="2127" 
d="M1919 1825h-55l-150 172q-28 34 -28 57q0 49 53 49q34 0 61 -55zM2062 1171q0 -445 -342 -1040q-57 -102 -112 -176q-52 -63 -152 -143q82 -186 252 -293l-14 -23q-111 66 -166 127q-60 66 -109 172q-53 -24 -90 -24q-186 0 -280 180q-71 133 -86 344h-60
q-307 0 -506 223q-196 215 -196 522q0 344 245 578q245 233 592 233q312 0 539 -227q138 105 227 105q84 0 132.5 -61t48.5 -155v-65q57 -64 69 -127q8 -33 8 -150zM1946 1475v32q0 65 -31 125q-37 70 -100 70q-103 0 -191 -119q62 -88 96 -158q80 64 150 64q44 0 76 -14z
M1946 1430q-33 26 -76 26q-72 0 -137 -65q35 -82 67 -244l-37 -6q-16 93 -55 219q-141 -161 -231 -414q-76 -214 -105 -467q478 323 574 951zM1694 1391q0 9 -45 84q-43 73 -43 75q-139 -183 -267 -538q-95 -273 -161 -582q-6 -14 -11 -30t-6 -17q77 18 176 70
q64 578 357 938zM2015 1274q0 50 -30 133q-126 -644 -613 -971v-141q0 -257 66 -449q94 64 164 166q41 59 112 207q106 224 197 518q104 341 104 537zM1554 1602q-200 206 -491 206q-326 0 -569 -239q-246 -237 -246 -561q0 -283 190 -482q189 -198 471 -198h54
q15 344 174 694q161 360 417 580zM1405 -170q-76 204 -76 485q0 56 8 97q-105 -52 -176 -72q-22 -138 -22 -219q0 -316 178 -316q43 0 88 25z" />
    <glyph glyph-name="Oacute" unicode="&#xd3;" horiz-adv-x="2127" 
d="M2001 2032q0 -31 -53 -64l-281 -164h-55l278 246q36 33 64 33q47 0 47 -51zM2062 1171q0 -445 -342 -1040q-57 -102 -112 -176q-52 -63 -152 -143q82 -186 252 -293l-14 -23q-111 66 -166 127q-60 66 -109 172q-53 -24 -90 -24q-186 0 -280 180q-71 133 -86 344h-60
q-307 0 -506 223q-196 215 -196 522q0 344 245 578q245 233 592 233q312 0 539 -227q138 105 227 105q84 0 132.5 -61t48.5 -155v-65q57 -64 69 -127q8 -33 8 -150zM1946 1475v32q0 65 -31 125q-37 70 -100 70q-103 0 -191 -119q62 -88 96 -158q80 64 150 64q44 0 76 -14z
M1946 1430q-33 26 -76 26q-72 0 -137 -65q35 -82 67 -244l-37 -6q-16 93 -55 219q-141 -161 -231 -414q-76 -214 -105 -467q478 323 574 951zM1694 1391q0 9 -45 84q-43 73 -43 75q-139 -183 -267 -538q-95 -273 -161 -582q-6 -14 -11 -30t-6 -17q77 18 176 70
q64 578 357 938zM2015 1274q0 50 -30 133q-126 -644 -613 -971v-141q0 -257 66 -449q94 64 164 166q41 59 112 207q106 224 197 518q104 341 104 537zM1554 1602q-200 206 -491 206q-326 0 -569 -239q-246 -237 -246 -561q0 -283 190 -482q189 -198 471 -198h54
q15 344 174 694q161 360 417 580zM1405 -170q-76 204 -76 485q0 56 8 97q-105 -52 -176 -72q-22 -138 -22 -219q0 -316 178 -316q43 0 88 25z" />
    <glyph glyph-name="Ocircumflex" unicode="&#xd4;" horiz-adv-x="2127" 
d="M2105 1804h-51l-164 183l-297 -183h-63l315 271h101zM2062 1171q0 -445 -342 -1040q-57 -102 -112 -176q-52 -63 -152 -143q82 -186 252 -293l-14 -23q-111 66 -166 127q-60 66 -109 172q-53 -24 -90 -24q-186 0 -280 180q-71 133 -86 344h-60q-307 0 -506 223
q-196 215 -196 522q0 344 245 578q245 233 592 233q312 0 539 -227q138 105 227 105q84 0 132.5 -61t48.5 -155v-65q57 -64 69 -127q8 -33 8 -150zM1946 1475v32q0 65 -31 125q-37 70 -100 70q-103 0 -191 -119q62 -88 96 -158q80 64 150 64q44 0 76 -14zM1946 1430
q-33 26 -76 26q-72 0 -137 -65q35 -82 67 -244l-37 -6q-16 93 -55 219q-141 -161 -231 -414q-76 -214 -105 -467q478 323 574 951zM1694 1391q0 9 -45 84q-43 73 -43 75q-139 -183 -267 -538q-95 -273 -161 -582q-6 -14 -11 -30t-6 -17q77 18 176 70q64 578 357 938z
M2015 1274q0 50 -30 133q-126 -644 -613 -971v-141q0 -257 66 -449q94 64 164 166q41 59 112 207q106 224 197 518q104 341 104 537zM1554 1602q-200 206 -491 206q-326 0 -569 -239q-246 -237 -246 -561q0 -283 190 -482q189 -198 471 -198h54q15 344 174 694
q161 360 417 580zM1405 -170q-76 204 -76 485q0 56 8 97q-105 -52 -176 -72q-22 -138 -22 -219q0 -316 178 -316q43 0 88 25z" />
    <glyph glyph-name="Otilde" unicode="&#xd5;" horiz-adv-x="2127" 
d="M2120 2034q-47 -183 -170 -183q-17 0 -56 11l-141 39q-40 10 -61 10q-75 0 -95 -80h-49q53 176 170 176q45 0 70 -8l145 -41q23 -6 47 -6q76 0 95 82h45zM2062 1171q0 -445 -342 -1040q-57 -102 -112 -176q-52 -63 -152 -143q82 -186 252 -293l-14 -23q-111 66 -166 127
q-60 66 -109 172q-53 -24 -90 -24q-186 0 -280 180q-71 133 -86 344h-60q-307 0 -506 223q-196 215 -196 522q0 344 245 578q245 233 592 233q312 0 539 -227q138 105 227 105q84 0 132.5 -61t48.5 -155v-65q57 -64 69 -127q8 -33 8 -150zM1946 1475v32q0 65 -31 125
q-37 70 -100 70q-103 0 -191 -119q62 -88 96 -158q80 64 150 64q44 0 76 -14zM1946 1430q-33 26 -76 26q-72 0 -137 -65q35 -82 67 -244l-37 -6q-16 93 -55 219q-141 -161 -231 -414q-76 -214 -105 -467q478 323 574 951zM1694 1391q0 9 -45 84q-43 73 -43 75
q-139 -183 -267 -538q-95 -273 -161 -582q-6 -14 -11 -30t-6 -17q77 18 176 70q64 578 357 938zM2015 1274q0 50 -30 133q-126 -644 -613 -971v-141q0 -257 66 -449q94 64 164 166q41 59 112 207q106 224 197 518q104 341 104 537zM1554 1602q-200 206 -491 206
q-326 0 -569 -239q-246 -237 -246 -561q0 -283 190 -482q189 -198 471 -198h54q15 344 174 694q161 360 417 580zM1405 -170q-76 204 -76 485q0 56 8 97q-105 -52 -176 -72q-22 -138 -22 -219q0 -316 178 -316q43 0 88 25z" />
    <glyph glyph-name="Odieresis" unicode="&#xd6;" horiz-adv-x="2127" 
d="M2077 1847q0 -45 -72 -45q-94 0 -94 39q0 111 28 111q18 0 107 -19q31 -6 31 -86zM1753 1847q0 -45 -76 -45q-94 0 -94 39q0 111 29 111q14 0 106 -19q35 -6 35 -86zM2062 1171q0 -445 -342 -1040q-57 -102 -112 -176q-52 -63 -152 -143q82 -186 252 -293l-14 -23
q-111 66 -166 127q-60 66 -109 172q-53 -24 -90 -24q-186 0 -280 180q-71 133 -86 344h-60q-307 0 -506 223q-196 215 -196 522q0 344 245 578q245 233 592 233q312 0 539 -227q138 105 227 105q84 0 132.5 -61t48.5 -155v-65q57 -64 69 -127q8 -33 8 -150zM1946 1475v32
q0 65 -31 125q-37 70 -100 70q-103 0 -191 -119q62 -88 96 -158q80 64 150 64q44 0 76 -14zM1946 1430q-33 26 -76 26q-72 0 -137 -65q35 -82 67 -244l-37 -6q-16 93 -55 219q-141 -161 -231 -414q-76 -214 -105 -467q478 323 574 951zM1694 1391q0 9 -45 84q-43 73 -43 75
q-139 -183 -267 -538q-95 -273 -161 -582q-6 -14 -11 -30t-6 -17q77 18 176 70q64 578 357 938zM2015 1274q0 50 -30 133q-126 -644 -613 -971v-141q0 -257 66 -449q94 64 164 166q41 59 112 207q106 224 197 518q104 341 104 537zM1554 1602q-200 206 -491 206
q-326 0 -569 -239q-246 -237 -246 -561q0 -283 190 -482q189 -198 471 -198h54q15 344 174 694q161 360 417 580zM1405 -170q-76 204 -76 485q0 56 8 97q-105 -52 -176 -72q-22 -138 -22 -219q0 -316 178 -316q43 0 88 25z" />
    <glyph glyph-name="multiply" unicode="&#xd7;" horiz-adv-x="1705" 
d="M1407 131l-70 -70l-481 482l-479 -482l-70 70l479 479l-479 482l70 69l479 -481l481 481l70 -69l-481 -482z" />
    <glyph glyph-name="Ugrave" unicode="&#xd9;" horiz-adv-x="2607" 
d="M2267 1763h-55l-150 172q-28 36 -28 58q0 49 53 49q33 0 61 -55zM2970 1423q0 -92 -84 -92q-62 0 -62 53v54q0 80 -84 80q-195 0 -377 -437q-54 -130 -188 -592l-86 -288q-49 -174 -49 -295q0 -76 24 -129q35 -72 99 -72q138 0 215 201l35 -19q-102 -227 -250 -227
q-138 0 -215 152q-62 119 -62 270q0 30 6 76q2 15 11 75q-81 -180 -134 -260q-113 -174 -219 -174q-92 0 -145 97q-43 82 -43 178q0 144 145 436l133 264q162 320 162 516q0 260 -198 418q-185 150 -449 150q-367 0 -639 -269q-268 -268 -268 -637q0 -277 174 -475
q181 -211 452 -211q172 0 321.5 86t242.5 236l37 -17q-99 -159 -258 -248.5t-343 -89.5q-296 0 -493 220q-193 211 -193 510q0 374 289 651q293 276 668 276q319 0 545 -188q239 -200 239 -512q0 -119 -26 -207q-26 -94 -150 -371l-135 -303l-92 -221q-51 -83 -51 -156
q0 -92 81 -92q153 0 449 772l123 322q94 248 248 414q190 211 415 211q67 0 119 -33q60 -42 60 -103z" />
    <glyph glyph-name="Uacute" unicode="&#xda;" horiz-adv-x="2607" 
d="M2410 2032q0 -32 -53 -64l-280 -164h-56l279 246q34 33 63 33q47 0 47 -51zM2970 1423q0 -92 -84 -92q-62 0 -62 53v54q0 80 -84 80q-195 0 -377 -437q-54 -130 -188 -592l-86 -288q-49 -174 -49 -295q0 -76 24 -129q35 -72 99 -72q138 0 215 201l35 -19
q-102 -227 -250 -227q-138 0 -215 152q-62 119 -62 270q0 30 6 76q2 15 11 75q-81 -180 -134 -260q-113 -174 -219 -174q-92 0 -145 97q-43 82 -43 178q0 144 145 436l133 264q162 320 162 516q0 260 -198 418q-185 150 -449 150q-367 0 -639 -269q-268 -268 -268 -637
q0 -277 174 -475q181 -211 452 -211q172 0 321.5 86t242.5 236l37 -17q-99 -159 -258 -248.5t-343 -89.5q-296 0 -493 220q-193 211 -193 510q0 374 289 651q293 276 668 276q319 0 545 -188q239 -200 239 -512q0 -119 -26 -207q-26 -94 -150 -371l-135 -303l-92 -221
q-51 -83 -51 -156q0 -92 81 -92q153 0 449 772l123 322q94 248 248 414q190 211 415 211q67 0 119 -33q60 -42 60 -103z" />
    <glyph glyph-name="Ucircumflex" unicode="&#xdb;" horiz-adv-x="2607" 
d="M2556 1825h-51l-164 182l-297 -182h-64l316 270h100zM2970 1423q0 -92 -84 -92q-62 0 -62 53v54q0 80 -84 80q-195 0 -377 -437q-54 -130 -188 -592l-86 -288q-49 -174 -49 -295q0 -76 24 -129q35 -72 99 -72q138 0 215 201l35 -19q-102 -227 -250 -227q-138 0 -215 152
q-62 119 -62 270q0 30 6 76q2 15 11 75q-81 -180 -134 -260q-113 -174 -219 -174q-92 0 -145 97q-43 82 -43 178q0 144 145 436l133 264q162 320 162 516q0 260 -198 418q-185 150 -449 150q-367 0 -639 -269q-268 -268 -268 -637q0 -277 174 -475q181 -211 452 -211
q172 0 321.5 86t242.5 236l37 -17q-99 -159 -258 -248.5t-343 -89.5q-296 0 -493 220q-193 211 -193 510q0 374 289 651q293 276 668 276q319 0 545 -188q239 -200 239 -512q0 -119 -26 -207q-26 -94 -150 -371l-135 -303l-92 -221q-51 -83 -51 -156q0 -92 81 -92
q153 0 449 772l123 322q94 248 248 414q190 211 415 211q67 0 119 -33q60 -42 60 -103z" />
    <glyph glyph-name="Udieresis" unicode="&#xdc;" horiz-adv-x="2607" 
d="M2568 1868q0 -45 -71 -45q-95 0 -95 39q0 110 29 110q15 0 106 -18q31 -6 31 -86zM2245 1868q0 -45 -76 -45q-94 0 -94 39q0 110 28 110q11 0 107 -18q35 -6 35 -86zM2970 1423q0 -92 -84 -92q-62 0 -62 53v54q0 80 -84 80q-195 0 -377 -437q-54 -130 -188 -592l-86 -288
q-49 -174 -49 -295q0 -76 24 -129q35 -72 99 -72q138 0 215 201l35 -19q-102 -227 -250 -227q-138 0 -215 152q-62 119 -62 270q0 30 6 76q2 15 11 75q-81 -180 -134 -260q-113 -174 -219 -174q-92 0 -145 97q-43 82 -43 178q0 144 145 436l133 264q162 320 162 516
q0 260 -198 418q-185 150 -449 150q-367 0 -639 -269q-268 -268 -268 -637q0 -277 174 -475q181 -211 452 -211q172 0 321.5 86t242.5 236l37 -17q-99 -159 -258 -248.5t-343 -89.5q-296 0 -493 220q-193 211 -193 510q0 374 289 651q293 276 668 276q319 0 545 -188
q239 -200 239 -512q0 -119 -26 -207q-26 -94 -150 -371l-135 -303l-92 -221q-51 -83 -51 -156q0 -92 81 -92q153 0 449 772l123 322q94 248 248 414q190 211 415 211q67 0 119 -33q60 -42 60 -103z" />
    <glyph glyph-name="Yacute" unicode="&#xdd;" horiz-adv-x="2056" 
d="M2623 1419q0 -35 -24 -59.5t-59 -24.5q-68 0 -68 78q1 4 4 26t6 42q0 63 -94 63q-190 0 -322 -221q-97 -167 -139 -391l-43 -227q-176 -914 -901 -914q-371 0 -618 272q-238 270 -238 642q0 295 158 512q151 207 432 321q163 277 475 277q192 0 334 -103
q157 -115 157 -299q0 -175 -145 -397l-90 -133q0 5 -3 0t-8 -19t-14 -39q114 42 260 183l25 -17q-117 -147 -309 -217q-37 -110 -37 -156q0 -59 29 -100q33 -47 90 -47q131 0 237 309l72 203q73 208 233 387q187 211 383 211q88 0 146 -37q71 -47 71 -125zM1581 1520
q0 134 -129 204q-111 60 -250 60q-289 0 -438 -230q100 33 227 33q206 0 422 -131l-14 -37q-209 135 -408 135q-117 0 -260 -55q-57 -111 -57 -239q0 -219 141 -363q144 -141 363 -141l18 4q24 4 31 4q21 155 145 338l109 158q100 143 100 260zM1632 512q-76 -76 -151 -76
q-124 0 -191 88q-63 82 -63 207h-49q-235 0 -387 148q-154 150 -154 381q0 96 43 221q-235 -116 -371 -338q-133 -221 -133 -481q0 -323 213 -574q226 -262 543 -262q476 0 700 686zM2329 2032q0 -32 -54 -64l-280 -164h-56l279 246q36 33 63 33q48 0 48 -51z" />
    <glyph glyph-name="agrave" unicode="&#xe0;" horiz-adv-x="839" 
d="M573 780h-55l-149 172q-29 35 -29 58q0 49 53 49q33 0 62 -55zM1014 522q0 -33 -74 -133q-183 -243 -235 -299q-100 -106 -187 -106q-100 0 -100 100q0 60 59 229q-187 -325 -321 -325q-84 0 -129 65q-37 58 -37 148q0 196 200 381q136 123 304 123q92 0 180 -41l8 -11
v-6q0 -24 -41 -164l-94 -317q-12 -41 -12 -70q0 -41 38 -41q87 0 435 498q3 -18 4.5 -26t1.5 -5zM575 629q-34 28 -90 28q-101 0 -213 -157q-153 -219 -153 -357q0 -92 63 -92q96 0 236 248q89 161 157 330z" />
    <glyph glyph-name="aacute" unicode="&#xe1;" horiz-adv-x="839" 
d="M737 1008q0 -32 -53 -64l-281 -164h-55l279 246q34 33 63 33q47 0 47 -51zM1014 522q0 -33 -74 -133q-183 -243 -235 -299q-100 -106 -187 -106q-100 0 -100 100q0 60 59 229q-187 -325 -321 -325q-84 0 -129 65q-37 58 -37 148q0 196 200 381q136 123 304 123
q92 0 180 -41l8 -11v-6q0 -24 -41 -164l-94 -317q-12 -41 -12 -70q0 -41 38 -41q87 0 435 498q3 -18 4.5 -26t1.5 -5zM575 629q-34 28 -90 28q-101 0 -213 -157q-153 -219 -153 -357q0 -92 63 -92q96 0 236 248q89 161 157 330z" />
    <glyph glyph-name="acircumflex" unicode="&#xe2;" horiz-adv-x="839" 
d="M739 780h-51l-164 183l-297 -183h-63l315 271h101zM1014 522q0 -33 -74 -133q-183 -243 -235 -299q-100 -106 -187 -106q-100 0 -100 100q0 60 59 229q-187 -325 -321 -325q-84 0 -129 65q-37 58 -37 148q0 196 200 381q136 123 304 123q92 0 180 -41l8 -11v-6
q0 -24 -41 -164l-94 -317q-12 -41 -12 -70q0 -41 38 -41q87 0 435 498q3 -18 4.5 -26t1.5 -5zM575 629q-34 28 -90 28q-101 0 -213 -157q-153 -219 -153 -357q0 -92 63 -92q96 0 236 248q89 161 157 330z" />
    <glyph glyph-name="atilde" unicode="&#xe3;" horiz-adv-x="839" 
d="M795 1010q-47 -183 -170 -183q-17 0 -56 11l-141 39q-42 10 -61 10q-75 0 -95 -80h-49q53 176 170 176q45 0 70 -8l145 -41q22 -6 47 -6q76 0 95 82h45zM1014 522q0 -33 -74 -133q-183 -243 -235 -299q-100 -106 -187 -106q-100 0 -100 100q0 60 59 229
q-187 -325 -321 -325q-84 0 -129 65q-37 58 -37 148q0 196 200 381q136 123 304 123q92 0 180 -41l8 -11v-6q0 -24 -41 -164l-94 -317q-12 -41 -12 -70q0 -41 38 -41q87 0 435 498q3 -18 4.5 -26t1.5 -5zM575 629q-34 28 -90 28q-101 0 -213 -157q-153 -219 -153 -357
q0 -92 63 -92q96 0 236 248q89 161 157 330z" />
    <glyph glyph-name="adieresis" unicode="&#xe4;" horiz-adv-x="839" 
d="M752 864q0 -45 -72 -45q-94 0 -94 39q0 111 28 111q16 0 107 -19q31 -6 31 -86zM428 864q0 -45 -76 -45q-94 0 -94 39q0 111 29 111q14 0 106 -19q35 -6 35 -86zM1014 522q0 -33 -74 -133q-183 -243 -235 -299q-100 -106 -187 -106q-100 0 -100 100q0 60 59 229
q-187 -325 -321 -325q-84 0 -129 65q-37 58 -37 148q0 196 200 381q136 123 304 123q92 0 180 -41l8 -11v-6q0 -24 -41 -164l-94 -317q-12 -41 -12 -70q0 -41 38 -41q87 0 435 498q3 -18 4.5 -26t1.5 -5zM575 629q-34 28 -90 28q-101 0 -213 -157q-153 -219 -153 -357
q0 -92 63 -92q96 0 236 248q89 161 157 330z" />
    <glyph glyph-name="aring" unicode="&#xe5;" horiz-adv-x="839" 
d="M739 944q0 -78 -54 -132t-132 -54t-132 54t-54 132q0 81 53 135t133 54q79 0 132.5 -54.5t53.5 -134.5zM1014 522q0 -33 -74 -133q-183 -243 -235 -299q-100 -106 -187 -106q-100 0 -100 100q0 60 59 229q-187 -325 -321 -325q-84 0 -129 65q-37 58 -37 148
q0 196 200 381q136 123 304 123q92 0 180 -41l8 -11v-6q0 -24 -41 -164l-94 -317q-12 -41 -12 -70q0 -41 38 -41q87 0 435 498q3 -18 4.5 -26t1.5 -5zM670 946q0 49 -34 83t-83 34q-50 0 -84.5 -34t-34.5 -83t35 -85t84 -36q50 0 83.5 35t33.5 86zM575 629q-34 28 -90 28
q-101 0 -213 -157q-153 -219 -153 -357q0 -92 63 -92q96 0 236 248q89 161 157 330z" />
    <glyph glyph-name="ccedilla" unicode="&#xe7;" horiz-adv-x="729" 
d="M913 530q0 -49 -67 -147q-281 -406 -576 -406q-112 0 -182 71t-70 183q0 160 132 310q152 170 311 170q69 0 114 -33q54 -39 54 -103q0 -52 -38.5 -87t-92.5 -35q-39 0 -62 30q76 34 76 105q0 76 -66 76q-76 0 -153 -99q-59 -78 -90 -168q-39 -97 -39 -184
q0 -180 162 -180q260 0 583 522q4 -12 4 -25zM397 -250q0 -143 -188 -143q-156 0 -260 82l14 35q121 -62 211 -62q117 0 117 92q0 84 -117 84q-40 0 -76 -8l60 170h51l-33 -106h27q12 2 24 2q170 0 170 -146z" />
    <glyph glyph-name="egrave" unicode="&#xe8;" horiz-adv-x="724" 
d="M489 780h-55l-149 172q-29 35 -29 58q0 49 53 49q33 0 62 -55zM907 535q0 -64 -88 -181q-272 -377 -559 -377q-110 0 -175 70.5t-65 183.5q0 159 130 316q137 164 292 164q71 0 120.5 -38t49.5 -102q0 -124 -170 -235q-119 -79 -280 -129q0 -174 151 -174q156 0 342 198
q122 127 246 328q6 -18 6 -24zM492 582q0 80 -68 80q-104 0 -184 -160q-61 -122 -78 -248q131 30 221 113q109 95 109 215z" />
    <glyph glyph-name="eacute" unicode="&#xe9;" horiz-adv-x="724" 
d="M653 1008q0 -32 -53 -64l-281 -164h-55l279 246q34 33 63 33q47 0 47 -51zM907 535q0 -64 -88 -181q-272 -377 -559 -377q-110 0 -175 70.5t-65 183.5q0 159 130 316q137 164 292 164q71 0 120.5 -38t49.5 -102q0 -124 -170 -235q-119 -79 -280 -129q0 -174 151 -174
q156 0 342 198q122 127 246 328q6 -18 6 -24zM492 582q0 80 -68 80q-104 0 -184 -160q-61 -122 -78 -248q131 30 221 113q109 95 109 215z" />
    <glyph glyph-name="ecircumflex" unicode="&#xea;" horiz-adv-x="724" 
d="M655 780h-51l-164 183l-297 -183h-63l315 271h101zM907 535q0 -64 -88 -181q-272 -377 -559 -377q-110 0 -175 70.5t-65 183.5q0 159 130 316q137 164 292 164q71 0 120.5 -38t49.5 -102q0 -124 -170 -235q-119 -79 -280 -129q0 -174 151 -174q156 0 342 198
q122 127 246 328q6 -18 6 -24zM492 582q0 80 -68 80q-104 0 -184 -160q-61 -122 -78 -248q131 30 221 113q109 95 109 215z" />
    <glyph glyph-name="edieresis" unicode="&#xeb;" horiz-adv-x="724" 
d="M668 864q0 -45 -72 -45q-94 0 -94 39q0 111 28 111q16 0 107 -19q31 -6 31 -86zM344 864q0 -45 -76 -45q-94 0 -94 39q0 111 29 111q14 0 106 -19q35 -6 35 -86zM907 535q0 -64 -88 -181q-272 -377 -559 -377q-110 0 -175 70.5t-65 183.5q0 159 130 316q137 164 292 164
q71 0 120.5 -38t49.5 -102q0 -124 -170 -235q-119 -79 -280 -129q0 -174 151 -174q156 0 342 198q122 127 246 328q6 -18 6 -24zM492 582q0 80 -68 80q-104 0 -184 -160q-61 -122 -78 -248q131 30 221 113q109 95 109 215z" />
    <glyph glyph-name="igrave" unicode="&#xec;" horiz-adv-x="505" 
d="M295 780h-55l-150 172q-29 37 -29 58q0 49 54 49q33 0 61 -55zM686 535q0 -49 -111 -199q-257 -346 -419 -346q-119 0 -119 123q0 37 31 131l129 403q14 32 41 35l75 16h6q15 0 15 -16l-4 -12l-140 -430q-28 -93 -28 -134q0 -57 51 -57q120 0 469 512q0 -3 2 -13t2 -13z
" />
    <glyph glyph-name="iacute" unicode="&#xed;" horiz-adv-x="505" 
d="M459 1008q0 -31 -53 -64l-281 -164h-55l278 246q36 33 64 33q47 0 47 -51zM686 535q0 -49 -111 -199q-257 -346 -419 -346q-119 0 -119 123q0 37 31 131l129 403q14 32 41 35l75 16h6q15 0 15 -16l-4 -12l-140 -430q-28 -93 -28 -134q0 -57 51 -57q120 0 469 512
q0 -3 2 -13t2 -13z" />
    <glyph glyph-name="icircumflex" unicode="&#xee;" horiz-adv-x="505" 
d="M461 780h-51l-164 183l-295 -183h-64l314 271h100zM686 535q0 -49 -111 -199q-257 -346 -419 -346q-119 0 -119 123q0 37 31 131l129 403q14 32 41 35l75 16h6q15 0 15 -16l-4 -12l-140 -430q-28 -93 -28 -134q0 -57 51 -57q120 0 469 512q0 -3 2 -13t2 -13z" />
    <glyph glyph-name="idieresis" unicode="&#xef;" horiz-adv-x="505" 
d="M473 864q0 -45 -72 -45q-94 0 -94 39q0 111 29 111q17 0 106 -19q31 -6 31 -86zM150 864q0 -45 -76 -45q-92 0 -92 39q0 111 26 111q13 0 107 -19q35 -6 35 -86zM686 535q0 -49 -111 -199q-257 -346 -419 -346q-119 0 -119 123q0 37 31 131l129 403q14 32 41 35l75 16h6
q15 0 15 -16l-4 -12l-140 -430q-28 -93 -28 -134q0 -57 51 -57q120 0 469 512q0 -3 2 -13t2 -13z" />
    <glyph glyph-name="eth" unicode="&#xf0;" horiz-adv-x="858" 
d="M1044 547q0 -45 -88 -162q-108 -149 -188 -229q-81 -80 -137 -80q-45 0 -78 37q-137 -138 -283 -138q-118 0 -188 70t-70 188q0 171 144 322q144 156 311 156q69 0 133 -47q0 151 -33 307l-237 -84l-4 2l-13 24l9 13l237 84q-19 99 -76 270l6 16l39 13l15 -11
q73 -166 106 -254l238 89l8 -7l8 -22l-4 -12l-235 -84q65 -203 65 -392q0 -214 -111 -419q11 -41 52 -41q47 0 135 106q76 89 233 309q6 -30 6 -24zM592 494q0 69 -31 116q-36 58 -102 58q-76 0 -154 -90q-54 -64 -94 -158q-49 -116 -49 -223q0 -177 129 -177q92 0 186 125
q115 153 115 349z" />
    <glyph glyph-name="ntilde" unicode="&#xf1;" horiz-adv-x="927" 
d="M862 1010q-47 -183 -170 -183q-16 0 -55 11l-141 39q-42 10 -62 10q-76 0 -94 -80h-49q53 176 170 176q45 0 69 -8l146 -41q21 -6 47 -6q76 0 94 82h45zM1102 524q0 -43 -150 -235q-232 -301 -346 -301q-50 0 -83.5 35.5t-33.5 89.5q0 49 86 305q54 160 54 170
q0 30 -35 30q-81 0 -287 -292q-104 -148 -145 -244q-18 -46 -21 -49q-15 -25 -39 -31l-75 -8h-9q-18 0 -18 14q0 21 2 25l182 596q24 47 49 53l70 16q2 2 16 2q15 0 15 -18l-4 -12l-140 -443q311 478 459 478q49 0 81 -34t32 -83q0 -59 -51 -203q-86 -243 -86 -279
q0 -32 39 -32q91 0 432 479z" />
    <glyph glyph-name="ograve" unicode="&#xf2;" horiz-adv-x="858" 
d="M590 780h-55l-150 172q-29 37 -29 58q0 49 54 49q34 0 61 -55zM1044 547q0 -45 -88 -162q-108 -149 -188 -229q-81 -80 -137 -80q-45 0 -78 37q-137 -138 -283 -138q-118 0 -188 70t-70 188q0 171 144 322q144 156 311 156q102 0 168 -78q63 -75 63 -184q0 -110 -80 -252
q11 -41 52 -41q47 0 135 106q76 89 233 309q6 -30 6 -24zM592 524q-28 144 -133 144q-76 0 -154 -90q-54 -64 -94 -158q-49 -116 -49 -223q0 -179 129 -179q100 0 215 172q-12 35 -12 76q0 127 98 258z" />
    <glyph glyph-name="oacute" unicode="&#xf3;" horiz-adv-x="858" 
d="M754 1008q0 -32 -54 -64l-280 -164h-55l278 246q36 33 64 33q47 0 47 -51zM1044 547q0 -45 -88 -162q-108 -149 -188 -229q-81 -80 -137 -80q-45 0 -78 37q-137 -138 -283 -138q-118 0 -188 70t-70 188q0 171 144 322q144 156 311 156q102 0 168 -78q63 -75 63 -184
q0 -110 -80 -252q11 -41 52 -41q47 0 135 106q76 89 233 309q6 -30 6 -24zM592 524q-28 144 -133 144q-76 0 -154 -90q-54 -64 -94 -158q-49 -116 -49 -223q0 -179 129 -179q100 0 215 172q-12 35 -12 76q0 127 98 258z" />
    <glyph glyph-name="ocircumflex" unicode="&#xf4;" horiz-adv-x="858" 
d="M756 780h-51l-164 183l-297 -183h-64l316 271h100zM1044 547q0 -45 -88 -162q-108 -149 -188 -229q-81 -80 -137 -80q-45 0 -78 37q-137 -138 -283 -138q-118 0 -188 70t-70 188q0 171 144 322q144 156 311 156q102 0 168 -78q63 -75 63 -184q0 -110 -80 -252
q11 -41 52 -41q47 0 135 106q76 89 233 309q6 -30 6 -24zM592 524q-28 144 -133 144q-76 0 -154 -90q-54 -64 -94 -158q-49 -116 -49 -223q0 -179 129 -179q100 0 215 172q-12 35 -12 76q0 127 98 258z" />
    <glyph glyph-name="otilde" unicode="&#xf5;" horiz-adv-x="858" 
d="M811 1010q-47 -183 -170 -183q-17 0 -55 11l-142 39q-40 10 -61 10q-76 0 -94 -80h-49q51 176 170 176q45 0 69 -8l146 -41q21 -6 47 -6q76 0 94 82h45zM1044 547q0 -45 -88 -162q-108 -149 -188 -229q-81 -80 -137 -80q-45 0 -78 37q-137 -138 -283 -138q-118 0 -188 70
t-70 188q0 171 144 322q144 156 311 156q102 0 168 -78q63 -75 63 -184q0 -110 -80 -252q11 -41 52 -41q47 0 135 106q76 89 233 309q6 -30 6 -24zM592 524q-28 144 -133 144q-76 0 -154 -90q-54 -64 -94 -158q-49 -116 -49 -223q0 -179 129 -179q100 0 215 172
q-12 35 -12 76q0 127 98 258z" />
    <glyph glyph-name="odieresis" unicode="&#xf6;" horiz-adv-x="858" 
d="M768 864q0 -45 -72 -45q-94 0 -94 39q0 111 29 111q17 0 106 -19q31 -6 31 -86zM444 864q0 -45 -75 -45q-95 0 -95 39q0 111 29 111q13 0 107 -19q34 -6 34 -86zM1044 547q0 -45 -88 -162q-108 -149 -188 -229q-81 -80 -137 -80q-45 0 -78 37q-137 -138 -283 -138
q-118 0 -188 70t-70 188q0 171 144 322q144 156 311 156q102 0 168 -78q63 -75 63 -184q0 -110 -80 -252q11 -41 52 -41q47 0 135 106q76 89 233 309q6 -30 6 -24zM592 524q-28 144 -133 144q-76 0 -154 -90q-54 -64 -94 -158q-49 -116 -49 -223q0 -179 129 -179
q100 0 215 172q-12 35 -12 76q0 127 98 258z" />
    <glyph glyph-name="divide" unicode="&#xf7;" horiz-adv-x="1705" 
d="M963 963q0 -47 -31.5 -77t-79.5 -30q-44 0 -75.5 31t-31.5 76q0 43 32 75.5t75 32.5q45 0 78 -32t33 -76zM1454 561h-1200v96h1200v-96zM963 258q0 -44 -33 -75t-78 -31q-44 0 -75.5 31t-31.5 75q0 43 32 75t75 32q48 0 79.5 -30t31.5 -77z" />
    <glyph glyph-name="ugrave" unicode="&#xf9;" horiz-adv-x="921" 
d="M635 780h-55l-150 172q-29 37 -29 58q0 49 54 49q33 0 61 -55zM1102 547q0 -48 -121 -217q-248 -346 -383 -346q-109 0 -109 118q0 67 99 340q-311 -458 -463 -458q-105 0 -105 106q0 30 29 125l139 428q7 21 13 28t24 11l84 16h10q15 0 15 -16q-1 -5 -2.5 -11t-1.5 -7
l-164 -474q-16 -69 -16 -88q0 -41 38 -41q66 0 218 191q98 125 176 248q7 10 63 125q25 51 53 57l76 18h6q19 0 19 -18q0 -3 -6 -18l-158 -467q-19 -59 -19 -91q0 -43 39 -43q98 0 437 510q10 -17 10 -26z" />
    <glyph glyph-name="uacute" unicode="&#xfa;" horiz-adv-x="921" 
d="M799 1008q0 -32 -54 -64l-280 -164h-55l278 246q36 33 64 33q47 0 47 -51zM1102 547q0 -48 -121 -217q-248 -346 -383 -346q-109 0 -109 118q0 67 99 340q-311 -458 -463 -458q-105 0 -105 106q0 30 29 125l139 428q7 21 13 28t24 11l84 16h10q15 0 15 -16
q-1 -5 -2.5 -11t-1.5 -7l-164 -474q-16 -69 -16 -88q0 -41 38 -41q66 0 218 191q98 125 176 248q7 10 63 125q25 51 53 57l76 18h6q19 0 19 -18q0 -3 -6 -18l-158 -467q-19 -59 -19 -91q0 -43 39 -43q98 0 437 510q10 -17 10 -26z" />
    <glyph glyph-name="ucircumflex" unicode="&#xfb;" horiz-adv-x="921" 
d="M801 780h-51l-164 183l-297 -183h-64l316 271h100zM1102 547q0 -48 -121 -217q-248 -346 -383 -346q-109 0 -109 118q0 67 99 340q-311 -458 -463 -458q-105 0 -105 106q0 30 29 125l139 428q7 21 13 28t24 11l84 16h10q15 0 15 -16q-1 -5 -2.5 -11t-1.5 -7l-164 -474
q-16 -69 -16 -88q0 -41 38 -41q66 0 218 191q98 125 176 248q7 10 63 125q25 51 53 57l76 18h6q19 0 19 -18q0 -3 -6 -18l-158 -467q-19 -59 -19 -91q0 -43 39 -43q98 0 437 510q10 -17 10 -26z" />
    <glyph glyph-name="udieresis" unicode="&#xfc;" horiz-adv-x="921" 
d="M813 864q0 -45 -72 -45q-94 0 -94 39q0 111 29 111q17 0 106 -19q31 -6 31 -86zM489 864q0 -45 -75 -45q-95 0 -95 39q0 111 29 111q13 0 107 -19q34 -6 34 -86zM1102 547q0 -48 -121 -217q-248 -346 -383 -346q-109 0 -109 118q0 67 99 340q-311 -458 -463 -458
q-105 0 -105 106q0 30 29 125l139 428q7 21 13 28t24 11l84 16h10q15 0 15 -16q-1 -5 -2.5 -11t-1.5 -7l-164 -474q-16 -69 -16 -88q0 -41 38 -41q66 0 218 191q98 125 176 248q7 10 63 125q25 51 53 57l76 18h6q19 0 19 -18q0 -3 -6 -18l-158 -467q-19 -59 -19 -91
q0 -43 39 -43q98 0 437 510q10 -17 10 -26z" />
    <glyph glyph-name="yacute" unicode="&#xfd;" horiz-adv-x="921" 
d="M799 1008q0 -32 -54 -64l-280 -164h-55l278 246q36 33 64 33q47 0 47 -51zM1096 522q0 -48 -121 -196q-262 -321 -416 -430q-107 -392 -383 -494l-12 2q-14 43 -14 86q0 221 305 442q8 72 120 471q-248 -403 -438 -403q-104 0 -104 119q0 25 28 121l129 413q11 26 43 29
l86 10q11 0 11 -10q-2 -6 -4 -18l-148 -467q-12 -41 -12 -84q0 -39 41 -39q112 0 334 348q51 84 104 192q32 65 53 68l88 12q15 0 15 -12l-70 -197q-100 -288 -156 -520q219 178 515 584q6 -21 6 -27zM453 -129q-213 -144 -213 -309q0 -34 14 -72q155 79 199 381z" />
    <glyph glyph-name="thorn" unicode="&#xfe;" horiz-adv-x="886" 
d="M1077 547q0 -58 -116 -209q-115 -147 -195 -221q-139 -121 -262 -121q-57 0 -129 27q-90 33 -90 79q0 17 51 43q6 3 29 15t36 18q222 126 222 322q0 106 -99 106q-121 0 -286 -287q-173 -762 -269 -917h-10q-31 102 -31 246q0 278 162 561l229 1034q11 41 41 47l86 15
q19 0 19 -21v-10l-205 -834q205 271 346 271q77 0 120.5 -48t43.5 -128q0 -228 -328 -408q38 -59 117 -59q183 0 512 507q6 -21 6 -28zM70 80q-95 -156 -95 -412q0 -44 15 -102q48 98 80 514z" />
    <glyph glyph-name="ydieresis" unicode="&#xff;" horiz-adv-x="921" 
d="M813 864q0 -45 -72 -45q-94 0 -94 39q0 111 29 111q17 0 106 -19q31 -6 31 -86zM489 864q0 -45 -75 -45q-95 0 -95 39q0 111 29 111q13 0 107 -19q34 -6 34 -86zM1096 522q0 -48 -121 -196q-262 -321 -416 -430q-107 -392 -383 -494l-12 2q-14 43 -14 86q0 221 305 442
q8 72 120 471q-248 -403 -438 -403q-104 0 -104 119q0 25 28 121l129 413q11 26 43 29l86 10q11 0 11 -10q-2 -6 -4 -18l-148 -467q-12 -41 -12 -84q0 -39 41 -39q112 0 334 348q51 84 104 192q32 65 53 68l88 12q15 0 15 -12l-70 -197q-100 -288 -156 -520q219 178 515 584
q6 -21 6 -27zM453 -129q-213 -144 -213 -309q0 -34 14 -72q155 79 199 381z" />
    <glyph glyph-name="Zcaron" unicode="&#x17d;" horiz-adv-x="2670" 
d="M2167 2136l-316 -270h-100l-160 270h51l164 -182l297 182h64zM2904 1751q-60 -135 -184 -225q-129 -94 -275 -94q-187 -175 -278 -416l-86 -223q-91 -236 -174 -394q-116 -216 -256 -344q282 -123 491 -123q131 0 238 70q123 83 123 205q0 41 -33 41q-13 0 -53 -17
q-40 -16 -54 -16q-94 0 -94 92q0 52 33 89.5t82 37.5q75 0 123 -76q41 -68 41 -143q0 -179 -144 -307q-143 -131 -323 -131q-187 0 -506 211q-284 -211 -600 -211q-363 0 -602 258q-234 252 -234 618q0 379 248 639q249 264 623 264q123 0 227 -43q199 289 535 289
q109 0 219 -39q28 -10 209 -86q263 -112 407 -112q149 0 260 194zM2394 1432q-170 25 -465 161q-169 76 -211 90q-54 19 -125 19q-176 0 -321 -195q379 -174 379 -575q0 -242 -135 -418q-127 -167 -363 -250q63 -14 170 -63l137 -62q0 -3 29 -18q190 247 375 610
q120 237 225 381q123 161 305 320zM1602 950q0 359 -349 523q-24 -61 -24 -93q0 -57 51 -57h43q35 0 59.5 -28.5t24.5 -65.5q0 -36 -31.5 -63t-70.5 -27q-59 0 -97 59q-30 53 -30 115q0 92 43 168l-15 6q-88 37 -190 37q-349 0 -592 -277q-234 -264 -234 -618
q0 -328 213 -570q222 -247 547 -247q239 0 500 258q-201 149 -354 178q-78 -15 -95 -15q-69 0 -69 31q0 33 84 33q48 0 80 -14q230 76 368 247q138 178 138 420z" />
    <glyph glyph-name="zcaron" unicode="&#x17e;" horiz-adv-x="729" 
d="M778 1051l-315 -271h-101l-159 271h51l164 -183l297 183h63zM899 510q0 -34 -147 -227q-235 -306 -357 -306q-14 0 -119 23q-92 20 -186 33q-40 -49 -76 -49q-14 0 -14 10q0 8 2 14l68 129q12 25 32 25h23l348 379q-158 34 -188 34q-38 0 -72 -49q-31 -49 -43 -49
q-33 0 -33 21q0 16 13 43q5 14 10 29t6 16q21 81 31 90q16 29 61 29q10 0 109 -17q151 -29 208 -35q52 58 74 58q25 0 25 -11q0 -13 -37 -53l-465 -497q240 -66 289 -66q72 0 178 121q74 83 254 348q6 -18 6 -43z" />
    <glyph glyph-name="Thorn" unicode="&#xde;" horiz-adv-x="770" 
d="M743 1071q13 -62 13 -104q0 -67 -43 -133q-7 -13 -103 -58q-84 -40 -84 -59q0 -17 47 -72q19 -20 41 -98q23 -75 23 -111q0 -104 -115 -270q-119 -174 -217 -174q-74 0 -74 86q0 34 19 60t49 26q45 0 45 -49q0 -18 -23.5 -44.5t-23.5 -31.5q0 -21 20 -21q58 0 123 134
q56 113 64 182q8 49 8 117q0 117 -35 233q-6 18 -6 31q0 19 49 53q75 54 88 70q49 53 49 129q0 33 -53 163q-48 119 -69 156q-83 -94 -148 -346l-90 -375l-90 -317l-238 -768q-3 -27 -22 -64q-16 -2 -82 -16h-6q-15 0 -15 20q0 5 299 1053q234 814 473 946h7
q72 -81 120 -348z" />
  </font>
</defs>
</svg>
